<svg xmlns="http://www.w3.org/2000/svg" viewBox="0 0 160 600"><title>bg</title><g id="Layer_2" data-name="Layer 2"><g id="Layer_4" data-name="Layer 4"><path d="M0,470H160V333C109.22,345.61,56.67,369,0,392.85Z" fill="#ffd237"/><rect y="391" width="160" height="209" fill="#006bff"/><rect x="42" y="524" width="51" height="76" fill="#e0f2ff"/><rect x="72" y="507" width="59" height="93" fill="#0d4599"/><rect x="131" y="507" width="14" height="93" fill="#a6e5ff"/><rect x="80" y="514" width="8" height="17" fill="#ffd237"/><rect x="97" y="514" width="8" height="17" fill="#fff"/><rect x="80" y="535" width="8" height="17" fill="#fff"/><rect x="97" y="535" width="8" height="17" fill="#fff"/><rect x="80" y="556" width="8" height="17" fill="#fff"/><rect x="97" y="556" width="8" height="17" fill="#fff"/><rect x="115" y="514" width="8" height="17" fill="#fff"/><rect x="115" y="535" width="8" height="17" fill="#fff"/><rect x="115" y="556" width="8" height="17" fill="#fff"/><polygon points="111 600 109 600 109 584 93 584 93 600 91 600 91 582 111 582 111 600" fill="#a6e5ff"/><path d="M0,444H160V373c-43.93-15.86-94-30-160-37Z" fill="#006aff"/><path d="M111.49,28.83h4.84l1.4,4.6C118.2,35,119,37.82,119,37.82s.06,0,.07,0,.81-2.91,1.28-4.39l1.47-4.6h3.57l1.45,4.6c.49,1.58,1.24,4.39,1.24,4.39a0,0,0,0,0,.08,0s.78-2.84,1.25-4.39l1.4-4.6h4.5l-4.87,15.22H126l-1.2-3.82c-.47-1.5-1.28-4.41-1.28-4.41a0,0,0,0,0-.07,0s-.82,2.85-1.31,4.38l-1.23,3.85h-4.51Z" fill="#fff"/><rect x="78.88" y="20.79" width="4.9" height="23.26" fill="#fff"/><rect x="87.42" y="20.79" width="4.9" height="23.26" fill="#fff"/><path d="M106.52,36.49a3.54,3.54,0,1,0-7.07,0,3.54,3.54,0,1,0,7.07,0m-11.78,0A8.24,8.24,0,1,1,103,44.56a8.06,8.06,0,0,1-8.27-8.07" fill="#fff"/><path d="M50.53,22.94v4.49h8.66s.05,0,0,.06L50.53,42.32a1.37,1.37,0,0,0-.26.86v.87H67.14V39.57H57.77s-.05,0,0-.06l8.8-15a1.08,1.08,0,0,0,.14-.6v-.94Z" fill="#fff"/><path d="M70.26,28.83h4.9V44.05h-4.9Zm2.45-7.62A2.76,2.76,0,1,1,69.92,24a2.79,2.79,0,0,1,2.79-2.76" fill="#fff"/><path d="M35.63,26.19a.2.2,0,0,1,.23.08c.39.44,1.62,1.95,2,2.36a.14.14,0,0,1,0,.2A44.67,44.67,0,0,0,31,35.52s0,0,0,0A77.57,77.57,0,0,1,42.86,32V28.4L31.72,19.56,20.56,28.4v4A78.09,78.09,0,0,1,35.63,26.19Z" fill="#fff"/><path d="M26.57,41.39a.19.19,0,0,1-.24,0l-2.08-2.49c-.06-.06-.07-.1,0-.21a39.53,39.53,0,0,1,7-7.6s0-.06,0,0a91.88,91.88,0,0,0-10.66,4.68v8.45h22.3V36A81.85,81.85,0,0,0,26.57,41.39Z" fill="#fff"/><path d="M138.56,26.66a.71.71,0,0,0-.73-.74h-.78V28h.35V27.4h.34l.39.64h.4l-.42-.68A.73.73,0,0,0,138.56,26.66Zm-.75.43h-.41v-.86h.41a.43.43,0,0,1,0,.86Z" fill="#fff"/><path d="M137.73,25.18A1.84,1.84,0,1,0,139.56,27,1.83,1.83,0,0,0,137.73,25.18Zm0,3.32A1.49,1.49,0,1,1,139.21,27,1.49,1.49,0,0,1,137.73,28.5Z" fill="#fff"/><rect width="160" height="600" fill="none"/></g></g></svg>