<svg xmlns="http://www.w3.org/2000/svg" viewBox="0 0 160 600"><title>cta</title><g id="Layer_2" data-name="Layer 2"><g id="Layer_12" data-name="Layer 12"><path d="M-579.6,142.65h-83a2.53,2.53,0,0,0-2.62,2.43v29.14a2.53,2.53,0,0,0,2.62,2.43h104.75a2.54,2.54,0,0,0,2.63-2.43V145.08a2.54,2.54,0,0,0-2.63-2.43Z" transform="translate(690 240)" fill="none" stroke="#fff" stroke-miterlimit="10" stroke-width="1.21"/><path d="M-656.14,154.86h5.66v1.44h-4v3.11h4v1.45h-4v3.81h-1.61Z" transform="translate(690 240)" fill="#fff"/><path d="M-649.18,156.07a1.11,1.11,0,0,1,1.13-1.14,1.11,1.11,0,0,1,1.14,1.14A1.11,1.11,0,0,1-648,157.2,1.1,1.1,0,0,1-649.18,156.07Zm.37,2.07h1.52v6.53h-1.52Z" transform="translate(690 240)" fill="#fff"/><path d="M-645.33,158.14h1.52v.91a2.34,2.34,0,0,1,2.13-1.08c1.57,0,2.38.88,2.38,2.59v4.11h-1.52v-3.41c0-1.38-.37-2-1.43-2s-1.56.66-1.56,1.81v3.59h-1.52Z" transform="translate(690 240)" fill="#fff"/><path d="M-631.08,154.86v9.81h-1.51v-.89a2.55,2.55,0,0,1-2.1,1.05,3.12,3.12,0,0,1-3.21-3.43,3.19,3.19,0,0,1,3.25-3.43,2.38,2.38,0,0,1,2.06,1.05v-4.16Zm-1.45,6.54a1.89,1.89,0,0,0-1.94-2.07,1.88,1.88,0,0,0-1.9,2.07,1.89,1.89,0,0,0,1.9,2.08A1.89,1.89,0,0,0-632.53,161.4Z" transform="translate(690 240)" fill="#fff"/><path d="M-621.89,163.32v1.35a7.84,7.84,0,0,1-1.14.08c-.74,0-2.11-.1-2.11-2.3v-3h-1.11v-1.27h1.11v-2h1.52v2h1.5v1.27h-1.5v2.69c0,1.14.35,1.28,1,1.28A5.63,5.63,0,0,0-621.89,163.32Z" transform="translate(690 240)" fill="#fff"/><path d="M-614.46,160.56v4.11H-616v-3.41c0-1.38-.36-2-1.43-2s-1.55.66-1.55,1.81v3.59h-1.53v-9.81H-619v4.19a2.32,2.32,0,0,1,2.13-1.08C-615.27,158-614.46,158.85-614.46,160.56Z" transform="translate(690 240)" fill="#fff"/><path d="M-606.7,161.91h-4.85a1.59,1.59,0,0,0,1.82,1.59,1.42,1.42,0,0,0,1.46-.74h1.54a2.8,2.8,0,0,1-3,2.07,3.13,3.13,0,0,1-3.33-3.43,3.15,3.15,0,0,1,3.27-3.43,3,3,0,0,1,3.13,3.1C-606.66,161.33-606.68,161.54-606.7,161.91Zm-1.46-1.17a1.47,1.47,0,0,0-1.65-1.56,1.56,1.56,0,0,0-1.74,1.56Z" transform="translate(690 240)" fill="#fff"/><path d="M-605.2,158.14h1.53v.91a2,2,0,0,1,1.82-1.08,2,2,0,0,1,2.06,1.16,2.19,2.19,0,0,1,2-1.16c2,0,2.36,1.35,2.36,2.56v4.14H-597v-3.84c0-1.08-.42-1.56-1.22-1.56s-1.37.38-1.37,1.94v3.46h-1.53v-3.86c0-1.07-.39-1.54-1.19-1.54s-1.4.38-1.4,1.94v3.46h-1.53Z" transform="translate(690 240)" fill="#fff"/><path d="M-584,160.56v4.11h-1.53v-3.41c0-1.38-.36-2-1.43-2s-1.55.66-1.55,1.81v3.59H-590v-9.81h1.53v4.19a2.32,2.32,0,0,1,2.13-1.08C-584.82,158-584,158.85-584,160.56Z" transform="translate(690 240)" fill="#fff"/><path d="M-576.25,161.91h-4.85a1.59,1.59,0,0,0,1.82,1.59,1.43,1.43,0,0,0,1.46-.74h1.54a2.8,2.8,0,0,1-3,2.07,3.13,3.13,0,0,1-3.33-3.43,3.14,3.14,0,0,1,3.27-3.43,3,3,0,0,1,3.13,3.1C-576.21,161.33-576.23,161.54-576.25,161.91Zm-1.46-1.17a1.46,1.46,0,0,0-1.65-1.56,1.56,1.56,0,0,0-1.74,1.56Z" transform="translate(690 240)" fill="#fff"/><path d="M-574.75,158.14h1.53v1.26a1.76,1.76,0,0,1,1.74-1.35,2.58,2.58,0,0,1,.6.06v1.4a4,4,0,0,0-.6,0c-1.08,0-1.74.82-1.74,2.3v2.89h-1.53Z" transform="translate(690 240)" fill="#fff"/><path d="M-564,161.91h-4.85A1.59,1.59,0,0,0-567,163.5a1.42,1.42,0,0,0,1.46-.74H-564a2.8,2.8,0,0,1-3,2.07,3.13,3.13,0,0,1-3.33-3.43A3.15,3.15,0,0,1-567,158a3,3,0,0,1,3.12,3.1C-563.92,161.33-563.93,161.54-564,161.91Zm-1.46-1.17a1.46,1.46,0,0,0-1.65-1.56,1.56,1.56,0,0,0-1.74,1.56Z" transform="translate(690 240)" fill="#fff"/><rect width="160" height="600" fill="none"/></g></g></svg>