<svg xmlns="http://www.w3.org/2000/svg" viewBox="0 0 160 600"><title>txt1c</title><g id="Layer_2" data-name="Layer 2"><g id="Layer_5_copy" data-name="Layer 5 copy"><rect width="160" height="600" fill="none"/><path d="M22.07,437.41h3.67v2.42a3.24,3.24,0,0,1,3.19-2.61,3.63,3.63,0,0,1,1,.09v3.41a7.82,7.82,0,0,0-1.1-.07c-2,0-3.05,1.3-3.05,3.86V449H22.07Z" fill="#fff"/><path d="M43.07,444.2H34.53c.07,1.51,1.08,2.33,2.71,2.33,1.13,0,1.85-.31,2.16-1H43c-.36,2.28-2.69,3.79-5.76,3.79-3.94,0-6.36-2.23-6.36-6.1s2.47-6.09,6.24-6.09c3.6,0,6.05,2.23,6.05,5.49A13,13,0,0,1,43.07,444.2Zm-3.53-2.28a2.18,2.18,0,0,0-2.45-2.35,2.31,2.31,0,0,0-2.56,2.35Z" fill="#fff"/><path d="M45.28,437.41H49v1.68a3.91,3.91,0,0,1,3.74-2c2.81,0,4.23,1.58,4.23,4.73V449h-3.7v-6c0-1.95-.55-2.84-2-2.84s-2.23,1-2.23,2.74V449H45.28Z" fill="#fff"/><path d="M67,446.05V449a14.89,14.89,0,0,1-2.44.19c-1.73,0-4.11-.38-4.11-4.25v-4.61H58.6v-2.9h1.82V434h3.67v3.43h2.62v2.9H64.09v3.84c0,1.71.7,2,1.61,2A9.92,9.92,0,0,0,67,446.05Z" fill="#fff"/><path d="M68.17,443.19c0-3.45,2.14-6.09,5.5-6.09a3.94,3.94,0,0,1,3.62,2v-1.66h3.65V449H77.29v-1.63a4.15,4.15,0,0,1-3.67,1.94C70.17,449.29,68.17,446.67,68.17,443.19Zm9.27,0a2.77,2.77,0,1,0-5.52,0,2.77,2.77,0,1,0,5.52,0Z" fill="#fff"/><path d="M84,432.18h3.67V449H84Z" fill="#fff"/></g></g></svg>