<svg xmlns="http://www.w3.org/2000/svg" viewBox="0 0 160 600"><title>txt1a</title><g id="Layer_2" data-name="Layer 2"><g id="Layer_5_copy_3" data-name="Layer 5 copy 3"><rect width="160" height="600" fill="none"/><path d="M25.29,381.63H20.68v-3.45h13.1v3.45H29.15V395H25.29Z" fill="#fff"/><path d="M47.05,387.83V395H43.36v-6c0-1.95-.56-2.84-2-2.84s-2.24,1-2.24,2.74V395H35.41v-16.8h3.67v6.91a3.94,3.94,0,0,1,3.75-2Q47,383.1,47.05,387.83Z" fill="#fff"/><path d="M61.26,390.2H52.72c.07,1.51,1.08,2.33,2.71,2.33,1.13,0,1.85-.31,2.16-1h3.6c-.36,2.28-2.69,3.79-5.76,3.79-3.94,0-6.36-2.23-6.36-6.1s2.47-6.09,6.24-6.09c3.6,0,6,2.23,6,5.49A13,13,0,0,1,61.26,390.2Zm-3.53-2.28a2.17,2.17,0,0,0-2.44-2.35,2.32,2.32,0,0,0-2.57,2.35Z" fill="#fff"/></g></g></svg>