<svg xmlns="http://www.w3.org/2000/svg" viewBox="0 0 160 600"><title>txt1d</title><g id="Layer_2" data-name="Layer 2"><g id="Layer_5" data-name="Layer 5"><rect width="160" height="600" fill="none"/><path d="M34.84,470.19c0,3.63-2.23,6.1-5.43,6.1a4.2,4.2,0,0,1-3.69-1.94v6.43H22.07V464.41h3.65v1.66a4.32,4.32,0,0,1,3.79-2C32.68,464.1,34.84,466.55,34.84,470.19Zm-3.75,0a2.77,2.77,0,1,0-2.73,3.05A2.76,2.76,0,0,0,31.09,470.19Z" fill="#fff"/><path d="M37,464.41h3.68v2.42a3.23,3.23,0,0,1,3.19-2.61,3.72,3.72,0,0,1,1,.09v3.41a8,8,0,0,0-1.11-.07c-2,0-3,1.3-3,3.86V476H37Z" fill="#fff"/><path d="M45.85,470.19c0-3.52,2.45-6.09,6.43-6.09s6.41,2.57,6.41,6.09-2.44,6.1-6.41,6.1S45.85,473.72,45.85,470.19Zm9.19,0a2.77,2.77,0,1,0-2.76,3A2.71,2.71,0,0,0,55,470.19Z" fill="#fff"/><path d="M73.57,470.19c0,3.63-2.23,6.1-5.42,6.1a4.22,4.22,0,0,1-3.7-1.94v6.43H60.8V464.41h3.65v1.66a4.35,4.35,0,0,1,3.8-2C71.41,464.1,73.57,466.55,73.57,470.19Zm-3.74,0a2.77,2.77,0,1,0-2.74,3.05A2.77,2.77,0,0,0,69.83,470.19Z" fill="#fff"/><path d="M87.13,471.2H78.59c.07,1.51,1.08,2.33,2.71,2.33,1.13,0,1.85-.31,2.16-1h3.6c-.36,2.28-2.69,3.79-5.76,3.79-3.94,0-6.36-2.23-6.36-6.1s2.47-6.09,6.24-6.09c3.6,0,6,2.23,6,5.49A11.31,11.31,0,0,1,87.13,471.2Zm-3.53-2.28a2.17,2.17,0,0,0-2.44-2.35,2.32,2.32,0,0,0-2.57,2.35Z" fill="#fff"/><path d="M89.34,464.41H93v2.42a3.25,3.25,0,0,1,3.2-2.61,3.72,3.72,0,0,1,1,.09v3.41a8.07,8.07,0,0,0-1.11-.07c-2,0-3,1.3-3,3.86V476H89.34Z" fill="#fff"/><path d="M107,473.05V476a15.14,15.14,0,0,1-2.45.19c-1.73,0-4.11-.38-4.11-4.25v-4.61H98.58v-2.9h1.82V461h3.68v3.43h2.61v2.9h-2.61v3.84c0,1.71.69,2,1.6,2A10.19,10.19,0,0,0,107,473.05Z" fill="#fff"/><path d="M108.64,461.17a2.21,2.21,0,0,1,2.25-2.26,2.25,2.25,0,1,1,0,4.49A2.2,2.2,0,0,1,108.64,461.17Zm.43,3.24h3.65V476h-3.65Z" fill="#fff"/><path d="M127,471.2H118.5c.07,1.51,1.08,2.33,2.71,2.33,1.13,0,1.85-.31,2.16-1H127c-.36,2.28-2.69,3.79-5.76,3.79-3.93,0-6.36-2.23-6.36-6.1s2.47-6.09,6.24-6.09c3.6,0,6,2.23,6,5.49A11.31,11.31,0,0,1,127,471.2Zm-3.52-2.28a2.18,2.18,0,0,0-2.45-2.35,2.32,2.32,0,0,0-2.57,2.35Z" fill="#fff"/><path d="M128.46,472.5h3.65c0,.79.77,1.34,1.89,1.34.8,0,1.35-.38,1.35-1s-.27-.84-1.25-1.08l-2.42-.6a3.38,3.38,0,0,1-2.91-3.39c0-2.18,2-3.62,4.95-3.62,3.26,0,5.16,1.27,5.16,3.57h-3.63c0-.81-.6-1.24-1.58-1.24-.79,0-1.32.38-1.32.93s.33.87,1.27,1.11l2.45.67c1.82.48,2.93,1.58,2.93,3.33,0,2.41-2,3.82-5.07,3.82C130.64,476.29,128.46,474.75,128.46,472.5Z" fill="#fff"/><path d="M140.72,473.87a2.38,2.38,0,1,1,2.38,2.35A2.36,2.36,0,0,1,140.72,473.87Z" fill="#fff"/></g></g></svg>