<svg xmlns="http://www.w3.org/2000/svg" viewBox="0 0 160 600"><title>txt1b</title><g id="Layer_2" data-name="Layer 2"><g id="Layer_5_copy_2" data-name="Layer 5 copy 2"><rect width="160" height="600" fill="none"/><path d="M22.07,410.41h3.67v1.68a3.49,3.49,0,0,1,3.31-2,3.51,3.51,0,0,1,3.63,2.13,4,4,0,0,1,3.69-2.13c3.32,0,4.11,2.28,4.11,4.7V422h-3.7v-6.51c0-1.6-.6-2.28-1.73-2.28s-1.94.65-1.94,2.84v6h-3.7v-6.53c0-1.61-.57-2.26-1.7-2.26s-2,.65-2,2.84v6H22.07Z" fill="#fff"/><path d="M42.47,416.19c0-3.52,2.45-6.09,6.43-6.09s6.41,2.57,6.41,6.09-2.45,6.1-6.41,6.1S42.47,419.72,42.47,416.19Zm9.19,0a2.77,2.77,0,1,0-2.76,3A2.71,2.71,0,0,0,51.66,416.19Z" fill="#fff"/><path d="M56.63,418.5h3.65c0,.79.76,1.34,1.89,1.34.79,0,1.35-.38,1.35-1s-.27-.84-1.25-1.08l-2.43-.6a3.38,3.38,0,0,1-2.9-3.39c0-2.18,2-3.62,4.94-3.62,3.27,0,5.16,1.27,5.16,3.57H63.42c0-.81-.6-1.24-1.58-1.24-.8,0-1.32.38-1.32.93s.33.87,1.27,1.11l2.45.67c1.82.48,2.93,1.58,2.93,3.33,0,2.41-2,3.82-5.07,3.82C58.81,422.29,56.63,420.75,56.63,418.5Z" fill="#fff"/><path d="M76.62,419.05V422a15,15,0,0,1-2.45.19c-1.73,0-4.1-.38-4.1-4.25v-4.61H68.24v-2.9h1.83V407h3.67v3.43h2.62v2.9H73.74v3.84c0,1.71.7,2,1.61,2A10,10,0,0,0,76.62,419.05Z" fill="#fff"/></g></g></svg>