<svg xmlns="http://www.w3.org/2000/svg" viewBox="0 0 160 600"><title>txt2a</title><g id="Layer_2" data-name="Layer 2"><g id="Layer_9_copy_2" data-name="Layer 9 copy 2"><path d="M21.11,389.48H25a2.6,2.6,0,0,0,2.73,2.91c1.44,0,2.26-.68,2.26-1.85s-.53-1.56-2-2.16l-3-1.18a4.65,4.65,0,0,1-3.4-4.58c0-2.95,2.32-4.92,6-4.92s6.15,2.09,6.15,5.33H29.75a2.14,2.14,0,0,0-2.33-2.43c-1.27,0-2,.65-2,1.66s.65,1.51,2.31,2.18l2.78,1.11a4.71,4.71,0,0,1,3.39,4.72c0,3.15-2.45,5.19-6.17,5.19C23.58,395.46,21.11,393.25,21.11,389.48Z" fill="#fff"/><path d="M43.28,392.05V395a14.89,14.89,0,0,1-2.44.19c-1.73,0-4.11-.38-4.11-4.25v-4.61H34.91v-2.9h1.82V380H40.4v3.43H43v2.9H40.4v3.84c0,1.71.7,2,1.61,2A9.92,9.92,0,0,0,43.28,392.05Z" fill="#fff"/><path d="M44.48,389.19c0-3.45,2.14-6.09,5.5-6.09a4,4,0,0,1,3.63,2v-1.66h3.64V395H53.61v-1.63a4.18,4.18,0,0,1-3.68,1.94C46.48,395.29,44.48,392.67,44.48,389.19Zm9.27,0a2.77,2.77,0,1,0-5.52,0,2.77,2.77,0,1,0,5.52,0Z" fill="#fff"/><path d="M60.3,383.41H64v2.42a3.24,3.24,0,0,1,3.19-2.61,3.63,3.63,0,0,1,1,.09v3.41a7.82,7.82,0,0,0-1.1-.07c-2,0-3,1.3-3,3.86V395H60.3Z" fill="#fff"/><path d="M77.92,392.05V395a15.14,15.14,0,0,1-2.45.19c-1.73,0-4.11-.38-4.11-4.25v-4.61H69.54v-2.9h1.82V380H75v3.43h2.61v2.9H75v3.84c0,1.71.69,2,1.6,2A10.19,10.19,0,0,0,77.92,392.05Z" fill="#fff"/><rect width="160" height="600" fill="none"/></g></g></svg>