<svg xmlns="http://www.w3.org/2000/svg" viewBox="0 0 160 600"><title>txt2c</title><g id="Layer_2" data-name="Layer 2"><g id="Layer_9" data-name="Layer 9"><path d="M21.23,445.5h3.65c0,.79.77,1.34,1.89,1.34.8,0,1.35-.38,1.35-1s-.27-.84-1.25-1.08l-2.43-.6a3.38,3.38,0,0,1-2.9-3.39c0-2.18,2-3.62,4.95-3.62,3.26,0,5.16,1.27,5.16,3.57H28c0-.81-.6-1.24-1.58-1.24-.79,0-1.32.38-1.32.93s.33.87,1.27,1.11l2.45.67c1.82.48,2.93,1.58,2.93,3.33,0,2.41-2,3.82-5.07,3.82C23.41,449.29,21.23,447.75,21.23,445.5Z" fill="#fff"/><path d="M45.4,444.2H36.85c.07,1.51,1.08,2.33,2.71,2.33,1.13,0,1.85-.31,2.16-1h3.6c-.36,2.28-2.68,3.79-5.76,3.79-3.93,0-6.36-2.23-6.36-6.1s2.48-6.09,6.24-6.09c3.6,0,6.05,2.23,6.05,5.49A12.92,12.92,0,0,1,45.4,444.2Zm-3.53-2.28a2.18,2.18,0,0,0-2.45-2.35,2.33,2.33,0,0,0-2.57,2.35Z" fill="#fff"/><path d="M47,443.19c0-3.45,2.13-6.09,5.49-6.09a4,4,0,0,1,3.63,2v-1.66h3.65V449H56.08v-1.63a4.18,4.18,0,0,1-3.68,1.94C49,449.29,47,446.67,47,443.19Zm9.26,0a2.77,2.77,0,1,0-5.52,0,2.77,2.77,0,1,0,5.52,0Z" fill="#fff"/><path d="M62.77,437.41h3.67v2.42a3.25,3.25,0,0,1,3.2-2.61,3.72,3.72,0,0,1,1,.09v3.41a8.07,8.07,0,0,0-1.11-.07c-2,0-3,1.3-3,3.86V449H62.77Z" fill="#fff"/><path d="M71.58,443.19c0-3.64,2.38-6.09,6.19-6.09,3.46,0,5.72,1.82,6,4.7H80.1c-.26-1.08-1-1.58-2.3-1.58-1.59,0-2.55,1-2.55,3s1,3,2.55,3c1.34,0,2-.48,2.3-1.49h3.67c-.28,2.81-2.54,4.61-6,4.61C74,449.29,71.58,446.84,71.58,443.19Z" fill="#fff"/><path d="M97.52,441.83V449H93.83v-6c0-1.95-.55-2.84-2-2.84s-2.23,1-2.23,2.74V449H85.88v-16.8h3.68v6.91a3.91,3.91,0,0,1,3.74-2Q97.52,437.1,97.52,441.83Z" fill="#fff"/><path d="M100.31,446.87a2.38,2.38,0,1,1,2.37,2.35A2.35,2.35,0,0,1,100.31,446.87Z" fill="#fff"/><rect width="160" height="600" fill="none"/></g></g></svg>