<svg xmlns="http://www.w3.org/2000/svg" viewBox="0 0 160 600"><title>txt2b</title><g id="Layer_2" data-name="Layer 2"><g id="Layer_9_copy" data-name="Layer 9 copy"><path d="M33.57,410.41v11.21a5.46,5.46,0,0,1-1.66,4.17,6,6,0,0,1-4.25,1.35,6.44,6.44,0,0,1-4.27-1.2A4.1,4.1,0,0,1,22,422.89h3.7c.07,1,.62,1.56,2,1.56s2.23-.79,2.23-2.59v-1.8A3.88,3.88,0,0,1,26.22,422c-2.95,0-4.27-2-4.27-4.85v-6.72h3.67v6.17c0,1.49.5,2.49,2,2.49s2.23-1.15,2.23-2.92v-5.74Z" fill="#fff"/><path d="M35.68,416.19c0-3.52,2.44-6.09,6.43-6.09s6.41,2.57,6.41,6.09-2.45,6.1-6.41,6.1S35.68,419.72,35.68,416.19Zm9.19,0a2.77,2.77,0,1,0-2.76,3A2.71,2.71,0,0,0,44.87,416.19Z" fill="#fff"/><path d="M50.51,417.56v-7.15h3.72v6.34c0,1.58.53,2.44,1.92,2.44,1.56,0,2.23-1,2.23-2.56v-6.22H62V422H58.38v-1.66a3.78,3.78,0,0,1-3.6,2C52,422.29,50.51,420.56,50.51,417.56Z" fill="#fff"/><path d="M65.08,410.41h3.67v2.42a3.24,3.24,0,0,1,3.19-2.61,3.72,3.72,0,0,1,1,.09v3.41a7.92,7.92,0,0,0-1.1-.07c-2,0-3,1.3-3,3.86V422H65.08Z" fill="#fff"/><rect width="160" height="600" fill="none"/></g></g></svg>