<svg xmlns="http://www.w3.org/2000/svg" viewBox="0 0 160 600"><title>txt3c</title><g id="Layer_2" data-name="Layer 2"><g id="Layer_11_copy" data-name="Layer 11 copy"><path d="M33.65,453.51v7.16H30v-6c0-1.94-.56-2.83-2-2.83s-2.24,1-2.24,2.74v6.05H22V443.86h3.67v6.92a3.94,3.94,0,0,1,3.75-2C32.24,448.79,33.65,450.37,33.65,453.51Z" fill="#fff"/><path d="M35.67,454.88c0-3.53,2.45-6.09,6.43-6.09s6.41,2.56,6.41,6.09S46.06,461,42.1,461,35.67,458.41,35.67,454.88Zm9.19,0a2.77,2.77,0,1,0-2.76,3A2.71,2.71,0,0,0,44.86,454.88Z" fill="#fff"/><path d="M50.62,449.1h3.67v1.68a4,4,0,0,1,6.94.14,4,4,0,0,1,3.7-2.13c3.31,0,4.1,2.28,4.1,4.7v7.18h-3.7v-6.51c0-1.61-.6-2.28-1.72-2.28s-2,.65-2,2.83v6H58v-6.53c0-1.61-.57-2.26-1.7-2.26s-2,.65-2,2.83v6H50.62Z" fill="#fff"/><path d="M83.21,455.89H74.67c.07,1.51,1.08,2.33,2.71,2.33,1.13,0,1.85-.31,2.16-1h3.6c-.36,2.28-2.69,3.79-5.76,3.79-3.94,0-6.36-2.23-6.36-6.1s2.47-6.09,6.24-6.09c3.6,0,6,2.23,6,5.49A11.31,11.31,0,0,1,83.21,455.89Zm-3.53-2.28a2.16,2.16,0,0,0-2.44-2.35,2.31,2.31,0,0,0-2.57,2.35Z" fill="#fff"/><rect width="160" height="600" fill="none"/></g></g></svg>