<svg xmlns="http://www.w3.org/2000/svg" viewBox="0 0 160 600"><title>txt3d</title><g id="Layer_2" data-name="Layer 2"><g id="Layer_11" data-name="Layer 11"><path d="M33.65,481.51v7.16H30v-6c0-1.94-.56-2.83-2-2.83s-2.24,1-2.24,2.74v6.05H22V471.86h3.67v6.92a3.94,3.94,0,0,1,3.75-2C32.24,476.79,33.65,478.37,33.65,481.51Z" fill="#fff"/><path d="M47.86,483.89H39.32c.07,1.51,1.08,2.33,2.71,2.33,1.13,0,1.85-.31,2.16-1h3.6C47.43,487.47,45.1,489,42,489c-3.94,0-6.36-2.23-6.36-6.1s2.47-6.09,6.24-6.09c3.6,0,6.05,2.23,6.05,5.49A13,13,0,0,1,47.86,483.89Zm-3.53-2.28a2.17,2.17,0,0,0-2.45-2.35,2.31,2.31,0,0,0-2.56,2.35Z" fill="#fff"/><path d="M50.07,477.1h3.67v2.42a3.23,3.23,0,0,1,3.19-2.61,3.63,3.63,0,0,1,1,.09v3.41a7.82,7.82,0,0,0-1.1-.07c-2,0-3,1.29-3,3.86v4.47H50.07Z" fill="#fff"/><path d="M71.07,483.89H62.53c.07,1.51,1.08,2.33,2.71,2.33,1.13,0,1.85-.31,2.16-1H71c-.36,2.28-2.69,3.79-5.76,3.79-3.94,0-6.36-2.23-6.36-6.1s2.47-6.09,6.24-6.09c3.6,0,6,2.23,6,5.49A13,13,0,0,1,71.07,483.89Zm-3.53-2.28a2.17,2.17,0,0,0-2.45-2.35,2.31,2.31,0,0,0-2.56,2.35Z" fill="#fff"/><path d="M72.82,486.55a2.38,2.38,0,1,1,2.38,2.36A2.35,2.35,0,0,1,72.82,486.55Z" fill="#fff"/><rect width="160" height="600" fill="none"/></g></g></svg>