<svg xmlns="http://www.w3.org/2000/svg" viewBox="0 0 160 600"><title>txt3b</title><g id="Layer_2" data-name="Layer 2"><g id="Layer_11_copy_2" data-name="Layer 11 copy 2"><path d="M33.51,421.1v11.21a5.44,5.44,0,0,1-1.66,4.17,6,6,0,0,1-4.25,1.35,6.46,6.46,0,0,1-4.27-1.2,4.13,4.13,0,0,1-1.44-3.05h3.7c.07,1,.62,1.56,2,1.56s2.24-.79,2.24-2.59v-1.8a3.88,3.88,0,0,1-3.68,1.92c-2.95,0-4.27-2-4.27-4.85V421.1h3.67v6.17c0,1.48.51,2.49,2,2.49s2.24-1.15,2.24-2.93V421.1Z" fill="#fff"/><path d="M35.62,426.88c0-3.53,2.45-6.09,6.43-6.09s6.41,2.56,6.41,6.09S46,433,42.05,433,35.62,430.41,35.62,426.88Zm9.19,0a2.77,2.77,0,1,0-2.76,3A2.71,2.71,0,0,0,44.81,426.88Z" fill="#fff"/><path d="M50.45,428.25V421.1h3.72v6.33c0,1.59.53,2.45,1.92,2.45,1.56,0,2.23-1,2.23-2.57V421.1H62v11.57H58.32V431a3.78,3.78,0,0,1-3.6,2C51.94,433,50.45,431.25,50.45,428.25Z" fill="#fff"/><path d="M65,421.1h3.67v2.42a3.23,3.23,0,0,1,3.19-2.61,3.63,3.63,0,0,1,1,.09v3.41a7.82,7.82,0,0,0-1.1-.07c-2,0-3,1.29-3,3.86v4.47H65Z" fill="#fff"/><rect width="160" height="600" fill="none"/></g></g></svg>