<svg xmlns="http://www.w3.org/2000/svg" viewBox="0 0 160 600"><title>txt3a</title><g id="Layer_2" data-name="Layer 2"><g id="Layer_11_copy_3" data-name="Layer 11 copy 3"><path d="M22.13,387.86H32.41v3.27H26v4.54h6.39v3.19H26v5.81H22.13Z" fill="#fff"/><path d="M34.56,389.86a2.27,2.27,0,1,1,2.26,2.23A2.21,2.21,0,0,1,34.56,389.86ZM35,393.1h3.64v11.57H35Z" fill="#fff"/><path d="M41.69,393.1h3.67v1.68a3.94,3.94,0,0,1,3.75-2c2.81,0,4.22,1.58,4.22,4.72v7.16H49.64v-6c0-1.94-.56-2.83-2-2.83s-2.24,1-2.24,2.74v6.05H41.69Z" fill="#fff"/><path d="M68.19,387.86v16.81H64.54V403a4.13,4.13,0,0,1-3.67,2c-3.46,0-5.45-2.62-5.45-6.1s2.14-6.09,5.5-6.09a4,4,0,0,1,3.62,2v-6.89Zm-3.51,11a2.77,2.77,0,1,0-5.52,0,2.77,2.77,0,0,0,2.76,3.05C63.75,401.93,64.68,400.56,64.68,398.88Z" fill="#fff"/><rect width="160" height="600" fill="none"/></g></g></svg>