<svg xmlns="http://www.w3.org/2000/svg" viewBox="0 0 160 600"><title>txt4</title><g id="Layer_2" data-name="Layer 2"><g id="Layer_15" data-name="Layer 15"><path d="M32.11,272.38l3.41,5.52H33l-3.24-5.21h-3.5v5.21H24.09V261.1h6a5.86,5.86,0,0,1,2,11.28Zm-5.83-1.66H30a3.83,3.83,0,0,0,0-7.65H26.28Z" fill="#fff"/><path d="M47.91,273H39.34a3.2,3.2,0,0,0,3.48,3.38,2.9,2.9,0,0,0,2.93-1.63h2.09c-.39,2-2.43,3.46-5,3.46-3.41,0-5.55-2.26-5.55-5.83s2.16-5.81,5.45-5.81a5,5,0,0,1,5.24,5.2A11,11,0,0,1,47.91,273Zm-2-1.61a2.94,2.94,0,0,0-3.22-3.14,3.13,3.13,0,0,0-3.36,3.14Z" fill="#fff"/><path d="M49.79,263.26a1.69,1.69,0,1,1,3.38,0,1.69,1.69,0,0,1-3.38,0Zm.67,3.57h2.06V277.9H50.46Z" fill="#fff"/><path d="M55.76,266.83h2.09v2a3.37,3.37,0,0,1,3.31-2.3,3.29,3.29,0,0,1,3.53,2.37,3.74,3.74,0,0,1,3.57-2.37c3,0,4,1.92,4,4.34v7H70.16v-6.6c0-2.09-.91-2.95-2.4-2.95s-2.71,1.1-2.71,3.79v5.76H63v-6.43c0-2.4-1-3.12-2.38-3.12-1.7,0-2.73,1.2-2.73,3.79v5.76H55.76Z" fill="#fff"/><path d="M74.7,272.38c0-3.27,2.09-5.83,5.52-5.83a4.24,4.24,0,0,1,3.89,2.25v-2h2.07V277.9H84.11V276a4.42,4.42,0,0,1-3.94,2.23C76.65,278.19,74.7,275.64,74.7,272.38Zm9.51,0a3.73,3.73,0,1,0-7.44,0,3.73,3.73,0,1,0,7.44,0Z" fill="#fff"/><path d="M100.14,266.83v10.78a5.58,5.58,0,0,1-1.92,4.66,6.36,6.36,0,0,1-3.82,1,6.83,6.83,0,0,1-3.93-1.08,3.69,3.69,0,0,1-1.63-2.93H91c.14,1.3,1.25,2.26,3.36,2.26,2.4,0,3.7-1.15,3.7-3.79V276a4.43,4.43,0,0,1-3.94,2.23c-3.38,0-5.47-2.55-5.47-5.81a5.49,5.49,0,0,1,5.52-5.83,4.23,4.23,0,0,1,3.89,2.25v-2Zm-2,5.55a3.73,3.73,0,1,0-3.74,3.94A3.69,3.69,0,0,0,98.17,272.38Z" fill="#fff"/><path d="M102.74,263.26a1.69,1.69,0,1,1,3.38,0,1.69,1.69,0,0,1-3.38,0Zm.67,3.57h2.06V277.9h-2.06Z" fill="#fff"/><path d="M108.71,266.83h2.09v2.05a3.91,3.91,0,0,1,3.86-2.33c2.71,0,4.11,1.58,4.11,4.53v6.82H116.7V272c0-2.48-.81-3.65-2.78-3.65s-3.12,1.46-3.12,3.69v5.86h-2.09Z" fill="#fff"/><path d="M131.83,273h-8.57a3.2,3.2,0,0,0,3.48,3.38,2.89,2.89,0,0,0,2.93-1.63h2.09c-.38,2-2.42,3.46-5,3.46-3.4,0-5.54-2.26-5.54-5.83s2.16-5.81,5.45-5.81a5,5,0,0,1,5.23,5.2A11,11,0,0,1,131.83,273Zm-2-1.61a2.93,2.93,0,0,0-3.22-3.14,3.14,3.14,0,0,0-3.36,3.14Z" fill="#fff"/><path d="M43.1,300v1.85a10,10,0,0,1-1.87.16c-1.3,0-3.39-.24-3.39-3.81v-5.64h-2v-1.76h2v-3.5h2.09v3.5h2.78v1.76H39.93v5.18c0,2.11.72,2.4,1.78,2.4A8.27,8.27,0,0,0,43.1,300Z" fill="#fff"/><path d="M55.24,295.08v6.82H53.15V296c0-2.48-.79-3.65-2.78-3.65s-3.12,1.46-3.12,3.69v5.86H45.16V285.1h2.09v7.78a3.91,3.91,0,0,1,3.86-2.33C53.85,290.55,55.24,292.13,55.24,295.08Z" fill="#fff"/><path d="M68.31,297H59.74a3.2,3.2,0,0,0,3.48,3.38,2.9,2.9,0,0,0,2.93-1.63h2.09c-.39,2-2.43,3.46-5,3.46-3.41,0-5.55-2.26-5.55-5.83s2.16-5.81,5.45-5.81a5,5,0,0,1,5.24,5.2A11,11,0,0,1,68.31,297Zm-2-1.61a2.93,2.93,0,0,0-3.22-3.14,3.13,3.13,0,0,0-3.36,3.14Z" fill="#fff"/><path d="M75.53,290.83h2.28l2.64,8.09,2.71-8.09H85.4l2.68,8.09,2.67-8.09H93L89,301.9H87.17l-2.9-8.5-2.91,8.5H79.61Z" fill="#fff"/><path d="M93.74,296.38c0-3.27,2.08-5.83,5.52-5.83a4.25,4.25,0,0,1,3.89,2.25v-2h2.06V301.9h-2.06V300a4.44,4.44,0,0,1-3.94,2.23C95.68,302.19,93.74,299.64,93.74,296.38Zm9.5,0a3.73,3.73,0,1,0-3.74,3.94A3.67,3.67,0,0,0,103.24,296.38Z" fill="#fff"/><path d="M117.87,290.83v11.29a5.21,5.21,0,0,1-1.49,4,5.4,5.4,0,0,1-3.63,1.2,5.68,5.68,0,0,1-3.74-1.15,3.69,3.69,0,0,1-1.25-2.86h2.09c.1,1.35.82,2.26,2.88,2.26,1.87,0,3.07-1.06,3.07-3.58v-2.06a4,4,0,0,1-3.84,2.25c-2.88,0-4.2-1.92-4.2-4.72v-6.61h2.07V297c0,2,.64,3.32,2.83,3.32s3.14-1.8,3.14-3.8v-5.69Z" fill="#fff"/><path d="M56.76,319.08v6.82H54.67V320c0-2.48-.79-3.65-2.78-3.65s-3.12,1.46-3.12,3.69v5.86H46.68V309.1h2.09v7.78a3.91,3.91,0,0,1,3.86-2.33C55.37,314.55,56.76,316.13,56.76,319.08Z" fill="#fff"/><path d="M59.15,320.38a5.76,5.76,0,1,1,5.76,5.81A5.53,5.53,0,0,1,59.15,320.38Zm9.44,0c0-2.23-1.35-4-3.68-4a4,4,0,1,0,3.68,4Z" fill="#fff"/><path d="M73.15,314.83h2.09v2a3.39,3.39,0,0,1,3.31-2.3,3.28,3.28,0,0,1,3.53,2.37,3.76,3.76,0,0,1,3.58-2.37c3,0,4,1.92,4,4.34v7H87.56v-6.6c0-2.09-.92-2.95-2.4-2.95-1.64,0-2.72,1.1-2.72,3.79v5.76H80.35v-6.43c0-2.4-1-3.12-2.37-3.12-1.71,0-2.74,1.2-2.74,3.79v5.76H73.15Z" fill="#fff"/><path d="M102.73,321H94.16a3.2,3.2,0,0,0,3.48,3.38,2.89,2.89,0,0,0,2.93-1.63h2.09c-.38,2-2.42,3.46-5,3.46-3.4,0-5.54-2.26-5.54-5.83s2.16-5.81,5.45-5.81a5,5,0,0,1,5.23,5.2A11,11,0,0,1,102.73,321Zm-2-1.61a2.93,2.93,0,0,0-3.22-3.14,3.14,3.14,0,0,0-3.36,3.14Z" fill="#fff"/><path d="M104.92,324.32a1.75,1.75,0,0,1,1.73-1.76,1.76,1.76,0,1,1,0,3.51A1.74,1.74,0,0,1,104.92,324.32Z" fill="#fff"/><rect width="160" height="600" fill="none"/></g></g></svg>