<svg xmlns="http://www.w3.org/2000/svg" viewBox="0 0 160 600"><title>w</title><g id="Layer_2" data-name="Layer 2"><g id="Layer_16" data-name="Layer 16"><path d="M112.37,216.5h5l1.44,4.73c.48,1.56,1.29,4.5,1.29,4.5a0,0,0,0,0,.07,0s.83-3,1.31-4.5L123,216.5h3.68l1.49,4.73c.5,1.62,1.28,4.5,1.28,4.5s.06,0,.08,0,.81-2.92,1.28-4.5l1.45-4.73h4.63l-5,15.62h-4.56l-1.24-3.92c-.48-1.54-1.32-4.53-1.32-4.53a0,0,0,0,0-.07,0s-.84,2.93-1.35,4.5l-1.26,4h-4.65Z" fill="#fff"/><path d="M140.25,214.28a.73.73,0,0,0-.75-.77h-.8v2.19h.36V215h.35l.4.66h.41l-.43-.71A.72.72,0,0,0,140.25,214.28Zm-.77.44h-.42v-.88h.42a.41.41,0,0,1,.41.44A.41.41,0,0,1,139.48,214.72Z" fill="#fff"/><path d="M139.39,212.76a1.89,1.89,0,1,0,1.89,1.88A1.88,1.88,0,0,0,139.39,212.76Zm0,3.4a1.52,1.52,0,1,1,1.53-1.52A1.52,1.52,0,0,1,139.39,216.16Z" fill="#fff"/><rect width="160" height="600" fill="none"/></g></g></svg>