<svg xmlns="http://www.w3.org/2000/svg" viewBox="0 0 300 250"><defs><style>.cls-1,.cls-3{fill:none;}.cls-1{stroke:#fff;stroke-miterlimit:10;stroke-width:1.44px;}.cls-2{fill:#fff;}</style></defs><title>cta</title><g id="Layer_2" data-name="Layer 2"><g id="cta"><path class="cls-1" d="M186.64,159.19H87.34a3,3,0,0,0-3.15,2.9V197a3,3,0,0,0,3.15,2.91H212.66a3,3,0,0,0,3.15-2.91V162.09a3,3,0,0,0-3.15-2.9Z"/><path class="cls-2" d="M104.07,174.72h5.66v1.45h-4v3.11h4v1.44h-4v3.81h-1.61Z"/><path class="cls-2" d="M111,175.93a1.14,1.14,0,1,1,2.27,0,1.14,1.14,0,0,1-2.27,0Zm.38,2.07h1.52v6.53H111.4Z"/><path class="cls-2" d="M114.88,178h1.52v.91a2.32,2.32,0,0,1,2.13-1.08c1.57,0,2.38.89,2.38,2.6v4.1h-1.52v-3.4c0-1.39-.37-2-1.43-2s-1.56.66-1.56,1.8v3.59h-1.52Z"/><path class="cls-2" d="M129.13,174.72v9.81h-1.51v-.88a2.56,2.56,0,0,1-2.1,1,3.12,3.12,0,0,1-3.21-3.43,3.2,3.2,0,0,1,3.25-3.44,2.41,2.41,0,0,1,2.06,1v-4.16Zm-1.46,6.55a1.93,1.93,0,1,0-1.93,2.07A1.89,1.89,0,0,0,127.67,181.27Z"/><path class="cls-2" d="M138.31,183.19v1.34a7.68,7.68,0,0,1-1.13.08c-.74,0-2.12-.09-2.12-2.29v-3H134V178h1.1v-2h1.53v2h1.5v1.28h-1.5V182c0,1.13.35,1.27.95,1.27A7.64,7.64,0,0,0,138.31,183.19Z"/><path class="cls-2" d="M145.75,180.43v4.1h-1.53v-3.4c0-1.39-.36-2-1.43-2s-1.55.66-1.55,1.8v3.59h-1.53v-9.81h1.53v4.19a2.31,2.31,0,0,1,2.13-1.08C144.94,177.83,145.75,178.72,145.75,180.43Z"/><path class="cls-2" d="M153.5,181.77h-4.84a1.59,1.59,0,0,0,1.82,1.6,1.42,1.42,0,0,0,1.45-.75h1.55a2.81,2.81,0,0,1-3,2.08,3.44,3.44,0,0,1-.06-6.87,3,3,0,0,1,3.12,3.1C153.54,181.2,153.53,181.41,153.5,181.77Zm-1.45-1.16a1.48,1.48,0,0,0-1.66-1.57,1.56,1.56,0,0,0-1.73,1.57Z"/><path class="cls-2" d="M155,178h1.53v.91a2.23,2.23,0,0,1,3.88.09,2.2,2.2,0,0,1,2-1.17c2,0,2.36,1.35,2.36,2.57v4.13h-1.53v-3.84c0-1.08-.42-1.55-1.22-1.55s-1.37.38-1.37,1.93v3.46h-1.53v-3.85c0-1.08-.39-1.54-1.19-1.54s-1.4.38-1.4,1.93v3.46H155Z"/><path class="cls-2" d="M176.2,180.43v4.1h-1.53v-3.4c0-1.39-.36-2-1.43-2s-1.55.66-1.55,1.8v3.59h-1.53v-9.81h1.53v4.19a2.31,2.31,0,0,1,2.13-1.08C175.38,177.83,176.2,178.72,176.2,180.43Z"/><path class="cls-2" d="M184,181.77h-4.84a1.59,1.59,0,0,0,1.82,1.6,1.42,1.42,0,0,0,1.45-.75h1.54a2.79,2.79,0,0,1-3,2.08,3.44,3.44,0,0,1-.06-6.87,3,3,0,0,1,3.13,3.1C184,181.2,184,181.41,184,181.77Zm-1.45-1.16a1.48,1.48,0,0,0-1.66-1.57,1.55,1.55,0,0,0-1.73,1.57Z"/><path class="cls-2" d="M185.46,178H187v1.26a1.76,1.76,0,0,1,1.74-1.34,2.69,2.69,0,0,1,.6.05v1.41a4.09,4.09,0,0,0-.6,0c-1.08,0-1.74.81-1.74,2.29v2.89h-1.53Z"/><path class="cls-2" d="M196.25,181.77H191.4a1.59,1.59,0,0,0,1.82,1.6,1.43,1.43,0,0,0,1.46-.75h1.54a2.81,2.81,0,0,1-3,2.08,3.44,3.44,0,0,1-.06-6.87,3,3,0,0,1,3.13,3.1C196.29,181.2,196.27,181.41,196.25,181.77Zm-1.46-1.16a1.47,1.47,0,0,0-1.65-1.57,1.56,1.56,0,0,0-1.74,1.57Z"/><rect class="cls-3" width="300" height="250"/></g></g></svg>