<svg xmlns="http://www.w3.org/2000/svg" viewBox="0 0 300 250"><defs><style>.cls-1{fill:#ffd237;}.cls-2{fill:none;}.cls-3{fill:#006aff;}.cls-4{fill:#e0f2ff;}.cls-5{fill:#0d4599;}.cls-6{fill:#a6e5ff;}.cls-7{fill:#fff;}</style></defs><title>footer</title><g id="Layer_2" data-name="Layer 2"><g id="_300x250" data-name="300x250"><path class="cls-1" d="M300,106c-35.51.39-71,6.39-111.79,17.22-42.17,11.2-97.84,17.44-119,18.59H69L300,170Z"/><rect class="cls-2" width="300" height="249"/><path class="cls-3" d="M300,146.25c-99.72-27.18-188.22-40.2-300-35.2V250H300Z"/><rect class="cls-4" x="193" y="188" width="40" height="62"/><rect class="cls-5" x="216" y="175" width="47" height="75"/><rect class="cls-6" x="263" y="175" width="12" height="75"/><rect class="cls-1" x="222" y="181" width="7" height="13"/><rect class="cls-7" x="236" y="181" width="7" height="13"/><rect class="cls-7" x="222" y="198" width="7" height="13"/><rect class="cls-7" x="236" y="198" width="7" height="13"/><rect class="cls-7" x="222" y="214" width="7" height="13"/><rect class="cls-7" x="236" y="214" width="7" height="13"/><rect class="cls-7" x="250" y="181" width="7" height="13"/><rect class="cls-7" x="250" y="198" width="7" height="13"/><rect class="cls-7" x="250" y="214" width="7" height="13"/><polygon class="cls-6" points="248 250 246 250 246 236 233 236 233 250 231 250 231 234 248 234 248 250"/><path class="cls-7" d="M110.15,211h4.79l1.38,4.54c.47,1.5,1.24,4.32,1.24,4.32a0,0,0,0,0,.07,0s.8-2.87,1.26-4.32l1.45-4.54h3.54l1.43,4.54c.49,1.55,1.23,4.32,1.23,4.32a0,0,0,0,0,.08,0s.77-2.8,1.23-4.32l1.39-4.54h4.45l-4.81,15H124.5l-1.2-3.77c-.45-1.47-1.26-4.34-1.26-4.34a0,0,0,0,0-.07,0s-.81,2.81-1.29,4.32L119.46,226H115Z"/><rect class="cls-7" x="77.39" y="203" width="5" height="23"/><rect class="cls-7" x="85.39" y="203" width="5" height="23"/><path class="cls-7" d="M105,218.13a3.56,3.56,0,1,0-3.53,3.81,3.6,3.6,0,0,0,3.53-3.81m-11.82,0a8.27,8.27,0,1,1,8.29,8.07,8.07,8.07,0,0,1-8.29-8.07"/><path class="cls-7" d="M48.39,204v5h9.09c0,.07.05.1,0,.13L48.78,224c-.21.39.61.86.61.86V225h16v-4H56l0-.06,9.27-15.37a1.08,1.08,0,0,0,.15-.61v-1Z"/><path class="cls-7" d="M68.39,211h5v15h-5Zm2.66-8.15a2.76,2.76,0,1,1-2.8,2.76,2.79,2.79,0,0,1,2.8-2.76"/><path class="cls-7" d="M34.26,207.85c.11,0,.16,0,.23.09.38.42,1.6,1.91,1.93,2.31a.14.14,0,0,1,0,.2A43.76,43.76,0,0,0,29.68,217s0,0,0,0a75.81,75.81,0,0,1,11.7-3.48V210l-11-8.68-11,8.68v3.89A77.2,77.2,0,0,1,34.26,207.85Z"/><path class="cls-7" d="M25.32,223.24a.18.18,0,0,1-.24,0l-2-2.49c-.06-.07-.06-.1,0-.21a39.24,39.24,0,0,1,6.89-7.61s0-.05,0,0a90.41,90.41,0,0,0-10.53,4.69V226h22v-8.13A79.78,79.78,0,0,0,25.32,223.24Z"/><path class="cls-7" d="M136.81,208.7a.66.66,0,0,0-.68-.7h-.74v2h0v-1h.94l.39,1h.06l-.39-.65A.67.67,0,0,0,136.81,208.7Zm-.41.3h0v-1h0c.23-.13.4.05.4.3S136.63,208.73,136.4,209Z"/><path class="cls-7" d="M136.31,206.82a1.84,1.84,0,1,0,1.84,1.83A1.83,1.83,0,0,0,136.31,206.82Zm0,3.32a1.49,1.49,0,1,1,1.49-1.49A1.49,1.49,0,0,1,136.31,210.14Z"/></g></g></svg>