<svg xmlns="http://www.w3.org/2000/svg" viewBox="0 0 300 250"><defs><style>.cls-1{fill:#fff;}.cls-2{fill:none;}</style></defs><title>txt1a</title><g id="Layer_2" data-name="Layer 2"><g id="txt1a"><path class="cls-1" d="M24.12,138.63H19.51v-3.45h13.1v3.45H28V152H24.12Z"/><path class="cls-1" d="M45.89,144.82V152h-3.7V146c0-1.95-.55-2.84-2-2.84s-2.23,1-2.23,2.74v6H34.25v-16.8h3.67v6.91a3.91,3.91,0,0,1,3.74-2C44.47,140.1,45.89,141.68,45.89,144.82Z"/><path class="cls-1" d="M60.09,147.2H51.55c.07,1.51,1.08,2.33,2.71,2.33,1.13,0,1.85-.31,2.16-1H60c-.36,2.28-2.69,3.79-5.76,3.79-3.93,0-6.36-2.23-6.36-6.1s2.47-6.09,6.24-6.09c3.6,0,6,2.23,6,5.49A11.31,11.31,0,0,1,60.09,147.2Zm-3.52-2.28a2.18,2.18,0,0,0-2.45-2.35,2.31,2.31,0,0,0-2.57,2.35Z"/><path class="cls-1" d="M68.13,140.41H71.8v1.68a4,4,0,0,1,6.94.14,4,4,0,0,1,3.7-2.13c3.31,0,4.1,2.28,4.1,4.7V152H82.85v-6.51c0-1.6-.6-2.28-1.73-2.28s-2,.65-2,2.84V152H75.48v-6.53c0-1.61-.58-2.26-1.71-2.26s-2,.65-2,2.84V152H68.13Z"/><path class="cls-1" d="M88.53,146.19c0-3.53,2.45-6.09,6.43-6.09s6.41,2.56,6.41,6.09-2.45,6.1-6.41,6.1S88.53,149.72,88.53,146.19Zm9.19,0a2.77,2.77,0,1,0-2.76,3A2.71,2.71,0,0,0,97.72,146.19Z"/><path class="cls-1" d="M102.69,148.5h3.65c0,.79.77,1.34,1.9,1.34.79,0,1.34-.38,1.34-1.05s-.26-.84-1.25-1.08l-2.42-.6a3.38,3.38,0,0,1-2.91-3.39c0-2.18,2-3.62,5-3.62,3.26,0,5.16,1.27,5.16,3.57h-3.63c0-.81-.6-1.25-1.58-1.25-.79,0-1.32.39-1.32.94s.34.86,1.27,1.1l2.45.68c1.82.48,2.93,1.58,2.93,3.33,0,2.4-2,3.82-5.07,3.82C104.88,152.29,102.69,150.75,102.69,148.5Z"/><path class="cls-1" d="M122.68,149.05V152a14.89,14.89,0,0,1-2.44.19c-1.73,0-4.11-.38-4.11-4.25v-4.61h-1.82v-2.9h1.82V137h3.67v3.43h2.62v2.9H119.8v3.84c0,1.71.7,2,1.61,2A9.92,9.92,0,0,0,122.68,149.05Z"/><path class="cls-1" d="M130.63,140.41h3.67v2.42a3.23,3.23,0,0,1,3.19-2.61,3.67,3.67,0,0,1,1,.09v3.41a7.92,7.92,0,0,0-1.1-.07c-2,0-3,1.3-3,3.86V152h-3.67Z"/><path class="cls-1" d="M151.63,147.2h-8.55c.08,1.51,1.09,2.33,2.72,2.33,1.12,0,1.84-.31,2.16-1h3.6c-.36,2.28-2.69,3.79-5.76,3.79-3.94,0-6.36-2.23-6.36-6.1s2.47-6.09,6.24-6.09c3.6,0,6,2.23,6,5.49A13,13,0,0,1,151.63,147.2Zm-3.53-2.28a2.17,2.17,0,0,0-2.45-2.35,2.32,2.32,0,0,0-2.57,2.35Z"/><path class="cls-1" d="M153.84,140.41h3.67v1.68a3.91,3.91,0,0,1,3.74-2c2.81,0,4.23,1.58,4.23,4.72V152h-3.7V146c0-1.95-.55-2.84-2-2.84s-2.23,1-2.23,2.74v6h-3.67Z"/><path class="cls-1" d="M175.53,149.05V152a15,15,0,0,1-2.45.19c-1.72,0-4.1-.38-4.1-4.25v-4.61h-1.82v-2.9H169V137h3.67v3.43h2.62v2.9h-2.62v3.84c0,1.71.7,2,1.61,2A9.92,9.92,0,0,0,175.53,149.05Z"/><path class="cls-1" d="M176.73,146.19c0-3.45,2.14-6.09,5.5-6.09a4,4,0,0,1,3.62,2v-1.65h3.65V152h-3.65v-1.63a4.15,4.15,0,0,1-3.67,1.94C178.72,152.29,176.73,149.67,176.73,146.19Zm9.27,0a2.77,2.77,0,1,0-5.52,0,2.77,2.77,0,1,0,5.52,0Z"/><path class="cls-1" d="M192.55,135.18h3.67V152h-3.67Z"/><rect class="cls-2" width="300" height="250"/></g></g></svg>