<svg xmlns="http://www.w3.org/2000/svg" viewBox="0 0 300 250"><defs><style>.cls-1{fill:#fff;}.cls-2{fill:none;}</style></defs><title>txt2b</title><g id="Layer_2" data-name="Layer 2"><g id="txt2b"><path class="cls-1" d="M20.06,173.5h3.65c0,.79.77,1.34,1.9,1.34.79,0,1.34-.38,1.34-1.05s-.26-.84-1.25-1.08l-2.42-.6a3.38,3.38,0,0,1-2.91-3.39c0-2.18,2-3.62,4.95-3.62,3.26,0,5.16,1.27,5.16,3.57H26.85c0-.81-.6-1.25-1.58-1.25-.79,0-1.32.39-1.32.94s.34.86,1.27,1.1l2.45.68c1.82.48,2.93,1.58,2.93,3.33,0,2.4-2,3.82-5.07,3.82C22.25,177.29,20.06,175.75,20.06,173.5Z"/><path class="cls-1" d="M44.23,172.2H35.68c.08,1.51,1.08,2.33,2.72,2.33,1.13,0,1.85-.31,2.16-1h3.6c-.36,2.28-2.69,3.79-5.76,3.79-3.94,0-6.36-2.23-6.36-6.1s2.47-6.09,6.24-6.09c3.6,0,6,2.23,6,5.49A13,13,0,0,1,44.23,172.2Zm-3.53-2.28a2.17,2.17,0,0,0-2.45-2.35,2.32,2.32,0,0,0-2.57,2.35Z"/><path class="cls-1" d="M45.79,171.19c0-3.45,2.13-6.09,5.49-6.09a4,4,0,0,1,3.63,2v-1.65h3.65V177H54.91v-1.63a4.16,4.16,0,0,1-3.67,1.94C47.78,177.29,45.79,174.67,45.79,171.19Zm9.26,0a2.77,2.77,0,1,0-5.52,0,2.77,2.77,0,0,0,2.76,3.05C54.12,174.24,55.05,172.87,55.05,171.19Z"/><path class="cls-1" d="M61.6,165.41h3.68v2.42a3.22,3.22,0,0,1,3.19-2.61,3.72,3.72,0,0,1,1,.09v3.41a7.92,7.92,0,0,0-1.1-.07c-2,0-3,1.3-3,3.86V177H61.6Z"/><path class="cls-1" d="M70.41,171.19c0-3.65,2.38-6.09,6.19-6.09,3.46,0,5.72,1.82,6,4.7H78.93c-.26-1.08-1-1.58-2.3-1.58-1.59,0-2.55,1.05-2.55,3s1,3,2.55,3c1.34,0,2-.48,2.3-1.49h3.68c-.29,2.81-2.55,4.61-6,4.61C72.79,177.29,70.41,174.84,70.41,171.19Z"/><path class="cls-1" d="M96.36,169.83V177h-3.7V171c0-1.95-.55-2.84-2-2.84s-2.23,1-2.23,2.74v6H84.72v-16.8h3.67v6.91a3.91,3.91,0,0,1,3.74-2C94.94,165.1,96.36,166.68,96.36,169.83Z"/><path class="cls-1" d="M99.14,174.87a2.38,2.38,0,1,1,2.38,2.35A2.35,2.35,0,0,1,99.14,174.87Z"/><rect class="cls-2" width="300" height="250"/></g></g></svg>