<svg xmlns="http://www.w3.org/2000/svg" viewBox="0 0 300 250"><defs><style>.cls-1{fill:#fff;}.cls-2{fill:none;}</style></defs><title>txt2a</title><g id="Layer_2" data-name="Layer 2"><g id="txt2a"><path class="cls-1" d="M19.94,146.48h3.89a2.59,2.59,0,0,0,2.74,2.9c1.44,0,2.25-.67,2.25-1.84s-.53-1.56-2-2.16l-3-1.18a4.64,4.64,0,0,1-3.41-4.58c0-3,2.33-4.92,6-4.92s6.14,2.08,6.14,5.32H28.58a2.14,2.14,0,0,0-2.33-2.42c-1.27,0-2,.65-2,1.66s.65,1.51,2.3,2.18l2.79,1.1a4.73,4.73,0,0,1,3.38,4.73c0,3.15-2.45,5.19-6.17,5.19C22.41,152.46,19.94,150.25,19.94,146.48Z"/><path class="cls-1" d="M42.12,149.05V152a15,15,0,0,1-2.45.19c-1.73,0-4.1-.38-4.1-4.25v-4.61H33.74v-2.9h1.83V137h3.67v3.43h2.61v2.9H39.24v3.84c0,1.71.69,2,1.61,2A10.13,10.13,0,0,0,42.12,149.05Z"/><path class="cls-1" d="M43.32,146.19c0-3.45,2.13-6.09,5.49-6.09a4,4,0,0,1,3.63,2v-1.65h3.65V152H52.44v-1.63a4.17,4.17,0,0,1-3.67,1.94C45.31,152.29,43.32,149.67,43.32,146.19Zm9.26,0a2.77,2.77,0,1,0-5.52,0,2.77,2.77,0,0,0,2.76,3.05C51.65,149.24,52.58,147.87,52.58,146.19Z"/><path class="cls-1" d="M59.13,140.41h3.68v2.42A3.22,3.22,0,0,1,66,140.22a3.72,3.72,0,0,1,1,.09v3.41a8,8,0,0,0-1.11-.07c-2,0-3,1.3-3,3.86V152H59.13Z"/><path class="cls-1" d="M76.75,149.05V152a15,15,0,0,1-2.45.19c-1.73,0-4.1-.38-4.1-4.25v-4.61H68.37v-2.9H70.2V137h3.67v3.43h2.62v2.9H73.87v3.84c0,1.71.7,2,1.61,2A10,10,0,0,0,76.75,149.05Z"/><path class="cls-1" d="M96.19,140.41v11.21a5.42,5.42,0,0,1-1.66,4.17,6,6,0,0,1-4.24,1.35,6.47,6.47,0,0,1-4.28-1.2,4.13,4.13,0,0,1-1.44-3.05h3.7c.07,1,.62,1.56,2,1.56s2.23-.79,2.23-2.59v-1.8A3.88,3.88,0,0,1,88.85,152c-3,0-4.28-2-4.28-4.85v-6.72h3.68v6.17c0,1.49.5,2.49,2,2.49s2.23-1.15,2.23-2.93v-5.73Z"/><path class="cls-1" d="M98.3,146.19c0-3.53,2.45-6.09,6.43-6.09s6.41,2.56,6.41,6.09-2.45,6.1-6.41,6.1S98.3,149.72,98.3,146.19Zm9.19,0a2.77,2.77,0,1,0-2.76,3A2.71,2.71,0,0,0,107.49,146.19Z"/><path class="cls-1" d="M113.13,147.56v-7.15h3.72v6.34c0,1.58.53,2.44,1.92,2.44,1.56,0,2.23-1,2.23-2.57v-6.21h3.65V152H121v-1.66a3.77,3.77,0,0,1-3.59,2C114.62,152.29,113.13,150.56,113.13,147.56Z"/><path class="cls-1" d="M127.7,140.41h3.67v2.42a3.24,3.24,0,0,1,3.2-2.61,3.72,3.72,0,0,1,1,.09v3.41a8.07,8.07,0,0,0-1.11-.07c-2,0-3,1.3-3,3.86V152H127.7Z"/><rect class="cls-2" width="300" height="250"/></g></g></svg>