<svg xmlns="http://www.w3.org/2000/svg" viewBox="0 0 728 90"><title>bg_1</title><g id="Layer_2" data-name="Layer 2"><g id="Layer_13" data-name="Layer 13"><path d="M157.5,90h455V61C360.3,10.23,236.12,41.28,157.5,90Z" fill="#ffd237"/><path d="M221,90H728V0H348C290.23,24.09,253.55,58.56,221,90Z" fill="#006aff"/><rect x="300" y="43" width="31" height="47" fill="#e0f2ff"/><rect x="318" y="33" width="36" height="57" fill="#0d4599"/><rect x="354" y="33" width="9" height="57" fill="#a6e5ff"/><rect x="323" y="38" width="5" height="10" fill="#ffd237"/><rect x="334" y="38" width="5" height="10" fill="#fff"/><rect x="323" y="50" width="5" height="10" fill="#fff"/><rect x="334" y="50" width="5" height="10" fill="#fff"/><rect x="323" y="63" width="5" height="10" fill="#fff"/><rect x="334" y="63" width="5" height="10" fill="#fff"/><rect x="345" y="38" width="5" height="10" fill="#fff"/><rect x="345" y="50" width="5" height="10" fill="#fff"/><rect x="345" y="63" width="5" height="10" fill="#fff"/><polygon points="343 90 341 90 341 80 332 80 332 90 330 90 330 78 343 78 343 90" fill="#a6e5ff"/><path d="M677.25,41.77h4.86l1.41,4.61c.47,1.52,1.26,4.39,1.26,4.39a0,0,0,0,0,.07,0s.81-2.92,1.27-4.39l1.48-4.61h3.59l1.45,4.61c.49,1.57,1.25,4.38,1.25,4.38a0,0,0,0,0,.07,0s.79-2.84,1.26-4.38l1.41-4.61h4.52L696.26,57h-4.45l-1.21-3.82c-.46-1.5-1.28-4.41-1.28-4.41a0,0,0,0,0-.07,0s-.82,2.85-1.31,4.38L686.7,57h-4.52Z" fill="#fff"/><rect x="644.53" y="33.73" width="4.92" height="23.26" fill="#fff"/><rect x="653.09" y="33.73" width="4.92" height="23.26" fill="#fff"/><path d="M672.27,49.43a3.56,3.56,0,1,0-3.53,3.81,3.6,3.6,0,0,0,3.53-3.81m-11.82,0a8.27,8.27,0,1,1,8.29,8.07,8.07,8.07,0,0,1-8.29-8.07" fill="#fff"/><path d="M616.07,35.88v4.49h8.69s0,0,0,.06l-8.73,14.84a1.33,1.33,0,0,0-.26.85V57h16.94V52.52h-9.41a0,0,0,0,1,0-.07l8.83-15a1.06,1.06,0,0,0,.14-.6v-.94Z" fill="#fff"/><path d="M635.87,41.77h4.92V57h-4.92Zm2.46-7.62a2.76,2.76,0,1,1-2.8,2.76,2.79,2.79,0,0,1,2.8-2.76" fill="#fff"/><path d="M601.11,39.13a.19.19,0,0,1,.23.09c.39.43,1.63,1.94,2,2.35a.13.13,0,0,1,0,.2,44.87,44.87,0,0,0-6.83,6.69s0,0,0,0A78,78,0,0,1,608.36,45V41.34L597.18,32.5,586,41.34v3.95A79.24,79.24,0,0,1,601.11,39.13Z" fill="#fff"/><path d="M592,54.33a.19.19,0,0,1-.25,0l-2.09-2.48c0-.07-.06-.11,0-.22a39.59,39.59,0,0,1,7-7.6s0-.06,0,0A94.11,94.11,0,0,0,586,48.63v8.46h22.38V49A82.42,82.42,0,0,0,592,54.33Z" fill="#fff"/><path d="M704.43,39.6a.71.71,0,0,0-.73-.74h-.79V41h.35v-.63h.35L704,41h.4L704,40.3A.73.73,0,0,0,704.43,39.6Zm-.75.43h-.42v-.86h.42a.43.43,0,0,1,0,.86Z" fill="#fff"/><path d="M703.59,38.12A1.84,1.84,0,1,0,705.43,40,1.84,1.84,0,0,0,703.59,38.12Zm0,3.32A1.49,1.49,0,1,1,705.07,40,1.48,1.48,0,0,1,703.59,41.44Z" fill="#fff"/><path d="M677.25,41.77h4.86l1.41,4.61c.47,1.52,1.26,4.39,1.26,4.39a0,0,0,0,0,.07,0s.81-2.92,1.27-4.39l1.48-4.61h3.59l1.45,4.61c.49,1.57,1.25,4.38,1.25,4.38a0,0,0,0,0,.07,0s.79-2.84,1.26-4.38l1.41-4.61h4.52L696.26,57h-4.45l-1.21-3.82c-.46-1.5-1.28-4.41-1.28-4.41a0,0,0,0,0-.07,0s-.82,2.85-1.31,4.38L686.7,57h-4.52Z" fill="#fff"/><rect x="644.53" y="33.73" width="4.92" height="23.26" fill="#fff"/><rect x="653.09" y="33.73" width="4.92" height="23.26" fill="#fff"/><path d="M672.27,49.43a3.56,3.56,0,1,0-3.53,3.81,3.6,3.6,0,0,0,3.53-3.81m-11.82,0a8.27,8.27,0,1,1,8.29,8.07,8.07,8.07,0,0,1-8.29-8.07" fill="#fff"/><path d="M616.07,35.88v4.49h8.69s0,0,0,.06l-8.73,14.84a1.33,1.33,0,0,0-.26.85V57h16.94V52.52h-9.41a0,0,0,0,1,0-.07l8.83-15a1.06,1.06,0,0,0,.14-.6v-.94Z" fill="#fff"/><path d="M635.87,41.77h4.92V57h-4.92Zm2.46-7.62a2.76,2.76,0,1,1-2.8,2.76,2.79,2.79,0,0,1,2.8-2.76" fill="#fff"/><path d="M601.11,39.13a.19.19,0,0,1,.23.09c.39.43,1.63,1.94,2,2.35a.13.13,0,0,1,0,.2,44.87,44.87,0,0,0-6.83,6.69s0,0,0,0A78,78,0,0,1,608.36,45V41.34L597.18,32.5,586,41.34v3.95A79.24,79.24,0,0,1,601.11,39.13Z" fill="#fff"/><path d="M592,54.33a.19.19,0,0,1-.25,0l-2.09-2.48c0-.07-.06-.11,0-.22a39.59,39.59,0,0,1,7-7.6s0-.06,0,0A94.11,94.11,0,0,0,586,48.63v8.46h22.38V49A82.42,82.42,0,0,0,592,54.33Z" fill="#fff"/><path d="M704.43,39.6a.71.71,0,0,0-.73-.74h-.79V41h.35v-.63h.35L704,41h.4L704,40.3A.73.73,0,0,0,704.43,39.6Zm-.75.43h-.42v-.86h.42a.43.43,0,0,1,0,.86Z" fill="#fff"/><path d="M703.59,38.12A1.84,1.84,0,1,0,705.43,40,1.84,1.84,0,0,0,703.59,38.12Zm0,3.32A1.49,1.49,0,1,1,705.07,40,1.48,1.48,0,0,1,703.59,41.44Z" fill="#fff"/><rect width="728" height="90" fill="none"/></g></g></svg>