<svg xmlns="http://www.w3.org/2000/svg" viewBox="0 0 728 90"><title>cta_1</title><g id="Layer_2" data-name="Layer 2"><g id="Layer_18" data-name="Layer 18"><path d="M668.53,30h-83a2.54,2.54,0,0,0-2.63,2.43V61.57A2.54,2.54,0,0,0,585.53,64H690.28a2.53,2.53,0,0,0,2.62-2.43V32.43A2.53,2.53,0,0,0,690.28,30Z" fill="none" stroke="#fff" stroke-miterlimit="10" stroke-width="1.21"/><path d="M592,42.21h5.66v1.44h-4v3.11h4v1.45h-4V52H592Z" fill="#fff"/><path d="M599,43.42a1.13,1.13,0,1,1,1.13,1.13A1.11,1.11,0,0,1,599,43.42Zm.37,2.07h1.52V52h-1.52Z" fill="#fff"/><path d="M602.8,45.49h1.52v.91a2.32,2.32,0,0,1,2.13-1.08c1.57,0,2.38.88,2.38,2.59V52h-1.52V48.61c0-1.38-.37-2-1.43-2s-1.56.66-1.56,1.81V52H602.8Z" fill="#fff"/><path d="M617.05,42.21V52h-1.51v-.89a2.55,2.55,0,0,1-2.1,1,3.12,3.12,0,0,1-3.21-3.43,3.19,3.19,0,0,1,3.25-3.43,2.38,2.38,0,0,1,2.06,1V42.21Zm-1.46,6.54a1.92,1.92,0,1,0-1.93,2.08A1.88,1.88,0,0,0,615.59,48.75Z" fill="#fff"/><path d="M626.23,50.67V52a7.57,7.57,0,0,1-1.13.08c-.74,0-2.12-.1-2.12-2.3v-3h-1.1V45.49H623v-2h1.53v2H626v1.27h-1.5v2.69c0,1.14.35,1.28,1,1.28A5.36,5.36,0,0,0,626.23,50.67Z" fill="#fff"/><path d="M633.67,47.91V52h-1.53V48.61c0-1.38-.36-2-1.43-2s-1.55.66-1.55,1.81V52h-1.53V42.21h1.53V46.4a2.31,2.31,0,0,1,2.13-1.08C632.86,45.32,633.67,46.2,633.67,47.91Z" fill="#fff"/><path d="M641.42,49.26h-4.84a1.59,1.59,0,0,0,1.82,1.59,1.43,1.43,0,0,0,1.46-.74h1.54a2.8,2.8,0,0,1-3,2.07,3.14,3.14,0,0,1-3.34-3.43,3.15,3.15,0,0,1,3.28-3.43,3,3,0,0,1,3.13,3.1C641.47,48.68,641.45,48.89,641.42,49.26ZM640,48.09a1.47,1.47,0,0,0-1.66-1.57,1.56,1.56,0,0,0-1.73,1.57Z" fill="#fff"/><path d="M642.93,45.49h1.53v.91a2.24,2.24,0,0,1,3.88.08,2.19,2.19,0,0,1,2-1.16c2,0,2.36,1.35,2.36,2.56V52h-1.53V48.18c0-1.08-.42-1.56-1.22-1.56s-1.37.38-1.37,1.94V52h-1.53V48.16c0-1.08-.39-1.54-1.19-1.54s-1.4.38-1.4,1.94V52h-1.53Z" fill="#fff"/><path d="M664.12,47.91V52h-1.53V48.61c0-1.38-.36-2-1.43-2s-1.55.66-1.55,1.81V52h-1.53V42.21h1.53V46.4a2.31,2.31,0,0,1,2.13-1.08C663.31,45.32,664.12,46.2,664.12,47.91Z" fill="#fff"/><path d="M671.87,49.26H667a1.59,1.59,0,0,0,1.82,1.59,1.44,1.44,0,0,0,1.46-.74h1.54a2.8,2.8,0,0,1-3,2.07,3.14,3.14,0,0,1-3.34-3.43,3.15,3.15,0,0,1,3.28-3.43,3,3,0,0,1,3.13,3.1C671.92,48.68,671.9,48.89,671.87,49.26Zm-1.45-1.17a1.48,1.48,0,0,0-1.66-1.57A1.56,1.56,0,0,0,667,48.09Z" fill="#fff"/><path d="M673.38,45.49h1.53v1.26a1.76,1.76,0,0,1,1.74-1.35,2.64,2.64,0,0,1,.6.06v1.4a4.09,4.09,0,0,0-.6,0c-1.08,0-1.74.82-1.74,2.3V52h-1.53Z" fill="#fff"/><path d="M684.17,49.26h-4.85a1.59,1.59,0,0,0,1.82,1.59,1.42,1.42,0,0,0,1.46-.74h1.54a2.8,2.8,0,0,1-3,2.07,3.13,3.13,0,0,1-3.33-3.43,3.15,3.15,0,0,1,3.27-3.43,3,3,0,0,1,3.13,3.1C684.21,48.68,684.19,48.89,684.17,49.26Zm-1.46-1.17a1.47,1.47,0,0,0-1.65-1.57,1.57,1.57,0,0,0-1.74,1.57Z" fill="#fff"/><rect width="728" height="90" fill="none"/></g></g></svg>