<svg xmlns="http://www.w3.org/2000/svg" viewBox="0 0 728 90"><title>txt1a_1</title><g id="Layer_2" data-name="Layer 2"><g id="Layer_14_copy" data-name="Layer 14 copy"><path d="M397.51,25H392.9V21.56H406V25h-4.64V38.36h-3.86Z" fill="#fff"/><path d="M419.28,31.21v7.15h-3.7v-6c0-1.95-.55-2.84-2-2.84s-2.23,1-2.23,2.74v6h-3.67V21.56h3.67v6.91a3.91,3.91,0,0,1,3.74-2C417.86,26.48,419.28,28.06,419.28,31.21Z" fill="#fff"/><path d="M433.49,33.58h-8.55c.07,1.51,1.08,2.33,2.71,2.33,1.13,0,1.85-.31,2.16-1h3.6c-.36,2.28-2.68,3.79-5.76,3.79-3.93,0-6.36-2.23-6.36-6.1s2.48-6.09,6.24-6.09c3.6,0,6.05,2.23,6.05,5.49A12.92,12.92,0,0,1,433.49,33.58ZM430,31.3A2.18,2.18,0,0,0,427.51,29a2.32,2.32,0,0,0-2.57,2.35Z" fill="#fff"/><path d="M441.53,26.79h3.67v1.68a3.94,3.94,0,0,1,6.93.14,4.07,4.07,0,0,1,3.7-2.13c3.31,0,4.1,2.28,4.1,4.7v7.18h-3.69V31.85c0-1.6-.6-2.28-1.73-2.28s-1.94.65-1.94,2.84v6h-3.7V31.83c0-1.61-.58-2.26-1.7-2.26s-2,.65-2,2.84v6h-3.67Z" fill="#fff"/><path d="M461.92,32.57c0-3.53,2.45-6.09,6.44-6.09s6.41,2.56,6.41,6.09-2.45,6.1-6.41,6.1S461.92,36.1,461.92,32.57Zm9.2,0a2.77,2.77,0,1,0-5.52,0,2.77,2.77,0,1,0,5.52,0Z" fill="#fff"/><path d="M476.08,34.88h3.65c0,.79.77,1.34,1.9,1.34.79,0,1.34-.38,1.34-1s-.26-.84-1.25-1.08l-2.42-.6a3.37,3.37,0,0,1-2.9-3.39c0-2.18,2-3.62,4.94-3.62,3.27,0,5.16,1.27,5.16,3.57h-3.62c0-.81-.6-1.25-1.59-1.25-.79,0-1.32.39-1.32.94s.34.87,1.28,1.11l2.44.67c1.83.48,2.93,1.58,2.93,3.33,0,2.4-2,3.82-5.06,3.82C478.27,38.67,476.08,37.13,476.08,34.88Z" fill="#fff"/><path d="M496.08,35.43v2.93a15,15,0,0,1-2.45.19c-1.73,0-4.11-.38-4.11-4.25V29.69H487.7v-2.9h1.82V23.36h3.68v3.43h2.61v2.9H493.2v3.84c0,1.71.69,2,1.6,2A10.19,10.19,0,0,0,496.08,35.43Z" fill="#fff"/><path d="M504,26.79h3.67v2.42a3.24,3.24,0,0,1,3.2-2.61,3.72,3.72,0,0,1,1,.09V30.1a8.07,8.07,0,0,0-1.11-.07c-2,0-3.05,1.3-3.05,3.86v4.47H504Z" fill="#fff"/><path d="M525,33.58h-8.54c.07,1.51,1.08,2.33,2.71,2.33,1.13,0,1.85-.31,2.16-1H525c-.36,2.28-2.69,3.79-5.76,3.79-3.94,0-6.36-2.23-6.36-6.1s2.47-6.09,6.24-6.09c3.6,0,6,2.23,6,5.49A13,13,0,0,1,525,33.58Zm-3.53-2.28A2.17,2.17,0,0,0,519,29a2.31,2.31,0,0,0-2.56,2.35Z" fill="#fff"/><path d="M527.23,26.79h3.67v1.68a3.92,3.92,0,0,1,3.75-2c2.8,0,4.22,1.58,4.22,4.73v7.15h-3.7v-6c0-1.95-.55-2.84-2-2.84s-2.23,1-2.23,2.74v6h-3.67Z" fill="#fff"/><path d="M548.93,35.43v2.93a15.14,15.14,0,0,1-2.45.19c-1.73,0-4.11-.38-4.11-4.25V29.69h-1.82v-2.9h1.82V23.36H546v3.43h2.62v2.9H546v3.84c0,1.71.7,2,1.61,2A10.19,10.19,0,0,0,548.93,35.43Z" fill="#fff"/><path d="M550.12,32.57c0-3.45,2.14-6.09,5.5-6.09a4,4,0,0,1,3.63,2V26.79h3.64V38.36h-3.64V36.73a4.18,4.18,0,0,1-3.68,1.94C552.12,38.67,550.12,36.05,550.12,32.57Zm9.27,0a2.77,2.77,0,1,0-5.52,0,2.77,2.77,0,1,0,5.52,0Z" fill="#fff"/><path d="M565.94,21.56h3.67v16.8h-3.67Z" fill="#fff"/><rect width="728" height="90" fill="none"/></g></g></svg>