<svg xmlns="http://www.w3.org/2000/svg" viewBox="0 0 728 90"><title>txt1a</title><g id="Layer_2" data-name="Layer 2"><g id="Layer_5_copy" data-name="Layer 5 copy"><path d="M379.88,23.9h-5V20.16h14.2V23.9h-5V38.36h-4.18Z" fill="#fff"/><path d="M403.46,30.61v7.75h-4V31.91c0-2.11-.59-3.07-2.21-3.07s-2.41,1-2.41,3v6.56h-4V20.16h4v7.48a4.24,4.24,0,0,1,4.05-2.15C401.92,25.49,403.46,27.2,403.46,30.61Z" fill="#fff"/><path d="M418.85,33.18h-9.26c.08,1.64,1.17,2.53,2.94,2.53,1.22,0,2-.34,2.34-1.12h3.9c-.39,2.47-2.91,4.11-6.24,4.11-4.26,0-6.89-2.42-6.89-6.61s2.68-6.6,6.76-6.6c3.9,0,6.55,2.42,6.55,6A13.16,13.16,0,0,1,418.85,33.18ZM415,30.71a2.36,2.36,0,0,0-2.65-2.54,2.51,2.51,0,0,0-2.79,2.54Z" fill="#fff"/><path d="M427.56,25.83h4v1.81a3.76,3.76,0,0,1,3.58-2.15c2.24,0,3.38,1,3.93,2.31a4.39,4.39,0,0,1,4-2.31c3.58,0,4.44,2.47,4.44,5.09v7.78h-4v-7c0-1.74-.65-2.47-1.88-2.47s-2.1.7-2.1,3.07v6.45h-4V31.29c0-1.75-.62-2.45-1.84-2.45s-2.13.7-2.13,3.07v6.45h-4Z" fill="#fff"/><path d="M449.66,32.09c0-3.82,2.65-6.6,7-6.6s6.94,2.78,6.94,6.6-2.65,6.61-6.94,6.61S449.66,35.91,449.66,32.09Zm10,0a3,3,0,1,0-6,0,3,3,0,1,0,6,0Z" fill="#fff"/><path d="M465,34.59H469c0,.86.83,1.45,2.05,1.45.86,0,1.46-.41,1.46-1.14,0-.57-.29-.91-1.35-1.17l-2.63-.65a3.65,3.65,0,0,1-3.14-3.67c0-2.36,2.13-3.92,5.35-3.92,3.54,0,5.59,1.38,5.59,3.87h-3.92c0-.88-.65-1.35-1.72-1.35-.86,0-1.43.41-1.43,1s.36.94,1.38,1.2l2.65.73c2,.52,3.17,1.71,3.17,3.61,0,2.6-2.16,4.14-5.48,4.14C467.36,38.7,465,37,465,34.59Z" fill="#fff"/><path d="M486.66,35.19v3.17a16,16,0,0,1-2.66.21c-1.87,0-4.44-.42-4.44-4.61V29h-2V25.83h2V22.11h4v3.72h2.83V29h-2.83v4.16c0,1.85.75,2.13,1.74,2.13A11.89,11.89,0,0,0,486.66,35.19Z" fill="#fff"/><rect width="728" height="90" fill="none"/></g></g></svg>