<svg xmlns="http://www.w3.org/2000/svg" viewBox="0 0 728 90"><title>txt1b_1</title><g id="Layer_2" data-name="Layer 2"><g id="Layer_14" data-name="Layer 14"><path d="M407.06,58.57c0,3.63-2.23,6.1-5.42,6.1a4.2,4.2,0,0,1-3.7-1.94v6.43h-3.65V52.79h3.65v1.66a4.34,4.34,0,0,1,3.79-2C404.9,52.48,407.06,54.93,407.06,58.57Zm-3.74,0a2.77,2.77,0,1,0-2.74,3A2.77,2.77,0,0,0,403.32,58.57Z" fill="#fff"/><path d="M409.27,52.79h3.67v2.42a3.23,3.23,0,0,1,3.19-2.61,3.63,3.63,0,0,1,1,.09V56.1A7.82,7.82,0,0,0,416,56c-2,0-3.05,1.3-3.05,3.86v4.47h-3.67Z" fill="#fff"/><path d="M418.08,58.57c0-3.53,2.45-6.09,6.43-6.09s6.41,2.56,6.41,6.09-2.45,6.1-6.41,6.1S418.08,62.1,418.08,58.57Zm9.19,0a2.77,2.77,0,1,0-5.52,0,2.77,2.77,0,1,0,5.52,0Z" fill="#fff"/><path d="M445.8,58.57c0,3.63-2.23,6.1-5.43,6.1a4.2,4.2,0,0,1-3.69-1.94v6.43H433V52.79h3.65v1.66a4.32,4.32,0,0,1,3.79-2C443.64,52.48,445.8,54.93,445.8,58.57Zm-3.75,0a2.77,2.77,0,1,0-2.73,3A2.76,2.76,0,0,0,442.05,58.57Z" fill="#fff"/><path d="M459.36,59.58h-8.55c.07,1.51,1.08,2.33,2.72,2.33,1.12,0,1.84-.31,2.16-1h3.6c-.36,2.28-2.69,3.79-5.76,3.79-3.94,0-6.36-2.23-6.36-6.1s2.47-6.09,6.24-6.09c3.6,0,6,2.23,6,5.49A12.92,12.92,0,0,1,459.36,59.58Zm-3.53-2.28A2.18,2.18,0,0,0,453.38,55a2.32,2.32,0,0,0-2.57,2.35Z" fill="#fff"/><path d="M461.56,52.79h3.68v2.42a3.22,3.22,0,0,1,3.19-2.61,3.72,3.72,0,0,1,1,.09V56.1a7.92,7.92,0,0,0-1.1-.07c-2,0-3.05,1.3-3.05,3.86v4.47h-3.68Z" fill="#fff"/><path d="M479.18,61.43v2.93a15,15,0,0,1-2.45.19c-1.73,0-4.1-.38-4.1-4.25V55.69H470.8v-2.9h1.83V49.36h3.67v3.43h2.62v2.9H476.3v3.84c0,1.71.7,2,1.61,2A10,10,0,0,0,479.18,61.43Z" fill="#fff"/><path d="M480.86,49.55a2.27,2.27,0,1,1,2.26,2.23A2.21,2.21,0,0,1,480.86,49.55Zm.43,3.24h3.65V64.36h-3.65Z" fill="#fff"/><path d="M499.27,59.58h-8.55c.08,1.51,1.08,2.33,2.72,2.33,1.12,0,1.84-.31,2.16-1h3.6c-.36,2.28-2.69,3.79-5.76,3.79-3.94,0-6.36-2.23-6.36-6.1s2.47-6.09,6.24-6.09c3.6,0,6.05,2.23,6.05,5.49A13,13,0,0,1,499.27,59.58Zm-3.53-2.28A2.18,2.18,0,0,0,493.29,55a2.32,2.32,0,0,0-2.57,2.35Z" fill="#fff"/><path d="M500.68,60.88h3.65c0,.79.77,1.34,1.9,1.34.79,0,1.34-.38,1.34-1s-.26-.84-1.25-1.08l-2.42-.6A3.37,3.37,0,0,1,501,56.1c0-2.18,2-3.62,4.94-3.62,3.26,0,5.16,1.27,5.16,3.57h-3.62c0-.81-.6-1.25-1.59-1.25-.79,0-1.32.39-1.32.94s.34.87,1.27,1.11l2.45.67c1.83.48,2.93,1.58,2.93,3.33,0,2.4-2,3.82-5.06,3.82C502.87,64.67,500.68,63.13,500.68,60.88Z" fill="#fff"/><path d="M513,62.25a2.38,2.38,0,1,1,2.37,2.35A2.35,2.35,0,0,1,513,62.25Z" fill="#fff"/><rect width="728" height="90" fill="none"/></g></g></svg>