<svg xmlns="http://www.w3.org/2000/svg" viewBox="0 0 728 90"><title>txt1b</title><g id="Layer_2" data-name="Layer 2"><g id="Layer_5" data-name="Layer 5"><path d="M376.39,47.16h4v18.2h-4Z" fill="#fff"/><path d="M383.18,49.31a2.39,2.39,0,0,1,2.44-2.44,2.43,2.43,0,1,1,0,4.86A2.38,2.38,0,0,1,383.18,49.31Zm.47,3.52h4V65.36h-4Z" fill="#fff"/><path d="M390,61.59h3.95c0,.86.83,1.45,2.05,1.45.86,0,1.46-.41,1.46-1.14,0-.57-.29-.91-1.35-1.17l-2.63-.65a3.65,3.65,0,0,1-3.14-3.67c0-2.36,2.13-3.92,5.35-3.92,3.54,0,5.59,1.38,5.59,3.87h-3.92c0-.88-.65-1.35-1.72-1.35-.86,0-1.43.41-1.43,1s.36.94,1.38,1.2l2.65.73c2,.52,3.17,1.71,3.17,3.61,0,2.6-2.16,4.14-5.48,4.14C392.35,65.7,390,64,390,61.59Z" fill="#fff"/><path d="M411.65,62.19v3.17a15.9,15.9,0,0,1-2.65.21c-1.88,0-4.45-.42-4.45-4.61V56h-2V52.83h2V49.11h4v3.72h2.83V56h-2.83v4.16c0,1.85.75,2.13,1.74,2.13A11.89,11.89,0,0,0,411.65,62.19Z" fill="#fff"/><path d="M413.47,49.31a2.39,2.39,0,0,1,2.44-2.44,2.43,2.43,0,1,1,0,4.86A2.38,2.38,0,0,1,413.47,49.31Zm.46,3.52h4V65.36h-4Z" fill="#fff"/><path d="M421.19,52.83h4v1.81a4.24,4.24,0,0,1,4.05-2.15c3,0,4.58,1.71,4.58,5.12v7.75h-4V58.91c0-2.11-.59-3.07-2.21-3.07s-2.41,1-2.41,3v6.56h-4Z" fill="#fff"/><path d="M449.92,52.83V64.55a6.17,6.17,0,0,1-2.42,5.28A7.64,7.64,0,0,1,443,71a8.71,8.71,0,0,1-4.53-1,4.51,4.51,0,0,1-2.23-3.48h4.05c.19,1,1,1.59,2.66,1.59,1.84,0,3-.81,3-3.05V63.33a4.42,4.42,0,0,1-3.93,2c-3.71,0-5.95-2.71-5.95-6.4s2.39-6.47,6-6.47a4.21,4.21,0,0,1,3.87,2.13V52.83ZM446.12,59a3,3,0,1,0-3,3.28A3,3,0,0,0,446.12,59Z" fill="#fff"/><path d="M452.28,61.59h4c0,.86.83,1.45,2.05,1.45.86,0,1.46-.41,1.46-1.14,0-.57-.29-.91-1.36-1.17l-2.62-.65a3.66,3.66,0,0,1-3.15-3.67c0-2.36,2.13-3.92,5.36-3.92,3.53,0,5.59,1.38,5.59,3.87h-3.93c0-.88-.65-1.35-1.71-1.35-.86,0-1.43.41-1.43,1s.36.94,1.37,1.2l2.66.73c2,.52,3.17,1.71,3.17,3.61,0,2.6-2.16,4.14-5.49,4.14C454.65,65.7,452.28,64,452.28,61.59Z" fill="#fff"/><path d="M465.57,63.07a2.58,2.58,0,1,1,2.57,2.55A2.55,2.55,0,0,1,465.57,63.07Z" fill="#fff"/><rect width="728" height="90" fill="none"/></g></g></svg>