<svg xmlns="http://www.w3.org/2000/svg" viewBox="0 0 728 90"><title>txt2b_1</title><g id="Layer_2" data-name="Layer 2"><g id="Layer_16" data-name="Layer 16"><path d="M393.45,60.88h3.65c0,.79.77,1.34,1.9,1.34.79,0,1.34-.38,1.34-1s-.26-.84-1.25-1.08l-2.42-.6a3.38,3.38,0,0,1-2.91-3.39c0-2.18,2-3.62,4.95-3.62,3.26,0,5.16,1.27,5.16,3.57h-3.62c0-.81-.6-1.25-1.59-1.25-.79,0-1.32.39-1.32.94s.34.87,1.27,1.11l2.45.67c1.83.48,2.93,1.58,2.93,3.33,0,2.4-2,3.82-5.06,3.82C395.64,64.67,393.45,63.13,393.45,60.88Z" fill="#fff"/><path d="M417.62,59.58h-8.54c.07,1.51,1.08,2.33,2.71,2.33,1.13,0,1.85-.31,2.16-1h3.6c-.36,2.28-2.69,3.79-5.76,3.79-3.94,0-6.36-2.23-6.36-6.1s2.47-6.09,6.24-6.09c3.6,0,6.05,2.23,6.05,5.49A13,13,0,0,1,417.62,59.58Zm-3.53-2.28A2.17,2.17,0,0,0,411.65,55a2.31,2.31,0,0,0-2.57,2.35Z" fill="#fff"/><path d="M419.18,58.57c0-3.45,2.14-6.09,5.5-6.09a3.94,3.94,0,0,1,3.62,2V52.79H432V64.36H428.3V62.73a4.15,4.15,0,0,1-3.67,1.94C421.17,64.67,419.18,62.05,419.18,58.57Zm9.27,0a2.78,2.78,0,1,0-5.53,0,2.78,2.78,0,1,0,5.53,0Z" fill="#fff"/><path d="M435,52.79h3.67v2.42a3.23,3.23,0,0,1,3.19-2.61,3.72,3.72,0,0,1,1,.09V56.1a7.92,7.92,0,0,0-1.1-.07c-2,0-3.05,1.3-3.05,3.86v4.47H435Z" fill="#fff"/><path d="M443.8,58.57c0-3.64,2.38-6.09,6.2-6.09,3.45,0,5.71,1.82,6,4.7h-3.67c-.27-1.08-1-1.58-2.31-1.58-1.58,0-2.54,1-2.54,3s1,3,2.54,3c1.35,0,2-.48,2.31-1.49H456c-.29,2.81-2.55,4.61-6,4.61C446.18,64.67,443.8,62.22,443.8,58.57Z" fill="#fff"/><path d="M469.75,57.21v7.15h-3.7v-6c0-1.95-.55-2.84-2-2.84s-2.23,1-2.23,2.74v6h-3.67V47.56h3.67v6.91a3.92,3.92,0,0,1,3.75-2C468.33,52.48,469.75,54.06,469.75,57.21Z" fill="#fff"/><path d="M472.53,62.25a2.38,2.38,0,1,1,2.38,2.35A2.35,2.35,0,0,1,472.53,62.25Z" fill="#fff"/><rect width="728" height="90" fill="none"/></g></g></svg>