<svg xmlns="http://www.w3.org/2000/svg" viewBox="0 0 728 90"><title>txt2a_1</title><g id="Layer_2" data-name="Layer 2"><g id="Layer_16_copy" data-name="Layer 16 copy"><path d="M393.33,32.86h3.89A2.6,2.6,0,0,0,400,35.77c1.44,0,2.25-.68,2.25-1.85s-.52-1.56-2-2.16l-3-1.18A4.64,4.64,0,0,1,393.74,26c0-3,2.33-4.92,6-4.92s6.14,2.08,6.14,5.32H402A2.13,2.13,0,0,0,399.65,24c-1.28,0-2,.65-2,1.66s.65,1.51,2.3,2.18l2.79,1.11a4.7,4.7,0,0,1,3.38,4.72c0,3.15-2.45,5.19-6.17,5.19C395.81,38.84,393.33,36.63,393.33,32.86Z" fill="#fff"/><path d="M415.51,35.43v2.93a15,15,0,0,1-2.45.19c-1.73,0-4.1-.38-4.1-4.25V29.69h-1.83v-2.9H409V23.36h3.67v3.43h2.62v2.9h-2.62v3.84c0,1.71.7,2,1.61,2A10,10,0,0,0,415.51,35.43Z" fill="#fff"/><path d="M416.71,32.57c0-3.45,2.14-6.09,5.5-6.09a3.94,3.94,0,0,1,3.62,2V26.79h3.65V38.36h-3.65V36.73a4.15,4.15,0,0,1-3.67,1.94C418.7,38.67,416.71,36.05,416.71,32.57Zm9.26,0a2.77,2.77,0,1,0-5.52,0,2.77,2.77,0,0,0,2.76,3C425,35.62,426,34.25,426,32.57Z" fill="#fff"/><path d="M432.52,26.79h3.68v2.42a3.22,3.22,0,0,1,3.19-2.61,3.72,3.72,0,0,1,1,.09V30.1a7.92,7.92,0,0,0-1.1-.07c-2,0-3.05,1.3-3.05,3.86v4.47h-3.68Z" fill="#fff"/><path d="M450.14,35.43v2.93a15,15,0,0,1-2.45.19c-1.73,0-4.1-.38-4.1-4.25V29.69h-1.83v-2.9h1.83V23.36h3.67v3.43h2.62v2.9h-2.62v3.84c0,1.71.7,2,1.61,2A10,10,0,0,0,450.14,35.43Z" fill="#fff"/><path d="M469.58,26.79V38a5.45,5.45,0,0,1-1.65,4.17,6.07,6.07,0,0,1-4.25,1.35,6.47,6.47,0,0,1-4.28-1.2,4.13,4.13,0,0,1-1.44-3h3.7c.07,1,.62,1.56,2,1.56s2.23-.79,2.23-2.59v-1.8a3.88,3.88,0,0,1-3.67,1.92c-3,0-4.28-2-4.28-4.85V26.79h3.68V33c0,1.49.5,2.49,2,2.49s2.23-1.15,2.23-2.92V26.79Z" fill="#fff"/><path d="M471.69,32.57c0-3.53,2.45-6.09,6.44-6.09s6.4,2.56,6.4,6.09-2.44,6.1-6.4,6.1S471.69,36.1,471.69,32.57Zm9.2,0a2.77,2.77,0,1,0-5.52,0,2.77,2.77,0,1,0,5.52,0Z" fill="#fff"/><path d="M486.52,33.94V26.79h3.72v6.33c0,1.59.53,2.45,1.92,2.45,1.56,0,2.24-1,2.24-2.56V26.79H498V38.36H494.4V36.7a3.78,3.78,0,0,1-3.6,2C488,38.67,486.52,36.94,486.52,33.94Z" fill="#fff"/><path d="M501.09,26.79h3.67v2.42A3.24,3.24,0,0,1,508,26.6a3.72,3.72,0,0,1,1,.09V30.1a8.07,8.07,0,0,0-1.11-.07c-2,0-3.05,1.3-3.05,3.86v4.47h-3.67Z" fill="#fff"/><rect width="728" height="90" fill="none"/></g></g></svg>