<svg xmlns="http://www.w3.org/2000/svg" viewBox="0 0 728 90"><title>txt2b</title><g id="Layer_2" data-name="Layer 2"><g id="Layer_7" data-name="Layer 7"><path d="M376.26,60.57V52.83h4v6.86c0,1.72.57,2.65,2.08,2.65,1.69,0,2.42-1.09,2.42-2.78V52.83h3.95V65.36h-3.95v-1.8a4.1,4.1,0,0,1-3.9,2.14C377.87,65.7,376.26,63.82,376.26,60.57Z" fill="#fff"/><path d="M405.88,59.09c0,3.93-2.42,6.61-5.88,6.61a4.56,4.56,0,0,1-4-2.11v7H392V52.83H396v1.79a4.71,4.71,0,0,1,4.11-2.13C403.53,52.49,405.88,55.14,405.88,59.09Zm-4.06,0a3,3,0,1,0-3,3.3A3,3,0,0,0,401.82,59.09Z" fill="#fff"/><path d="M421.27,47.16v18.2h-4V63.59a4.48,4.48,0,0,1-4,2.11c-3.75,0-5.91-2.84-5.91-6.61s2.32-6.6,6-6.6a4.26,4.26,0,0,1,3.92,2.13V47.16Zm-3.8,11.93c0-1.79-1-3.28-3-3.28a3,3,0,0,0-3,3.28,3,3,0,0,0,3,3.3C416.46,62.39,417.47,60.91,417.47,59.09Z" fill="#fff"/><path d="M423.66,59.09c0-3.74,2.31-6.6,5.95-6.6a4.29,4.29,0,0,1,3.93,2.13V52.83h3.95V65.36h-3.95V63.59a4.51,4.51,0,0,1-4,2.11C425.82,65.7,423.66,62.86,423.66,59.09Zm10,0c0-1.79-1-3.28-3-3.28a3,3,0,0,0-3,3.28,3,3,0,0,0,3,3.3C432.68,62.39,433.69,60.91,433.69,59.09Z" fill="#fff"/><path d="M448.75,62.19v3.17a15.9,15.9,0,0,1-2.65.21c-1.88,0-4.45-.42-4.45-4.61V56h-2V52.83h2V49.11h4v3.72h2.83V56h-2.83v4.16c0,1.85.75,2.13,1.74,2.13A11.89,11.89,0,0,0,448.75,62.19Z" fill="#fff"/><path d="M463.26,60.18H454c.08,1.64,1.17,2.53,2.94,2.53,1.22,0,2-.34,2.34-1.12h3.9c-.39,2.47-2.91,4.11-6.24,4.11-4.27,0-6.89-2.42-6.89-6.61s2.68-6.6,6.76-6.6c3.9,0,6.55,2.42,6.55,5.95A15.11,15.11,0,0,1,463.26,60.18Zm-3.83-2.47a2.35,2.35,0,0,0-2.65-2.54A2.51,2.51,0,0,0,454,57.71Z" fill="#fff"/><path d="M464.79,61.59h3.95c0,.86.83,1.45,2.06,1.45.85,0,1.45-.41,1.45-1.14,0-.57-.28-.91-1.35-1.17l-2.63-.65a3.65,3.65,0,0,1-3.14-3.67c0-2.36,2.13-3.92,5.35-3.92,3.54,0,5.59,1.38,5.59,3.87h-3.92c0-.88-.65-1.35-1.72-1.35-.86,0-1.43.41-1.43,1s.37.94,1.38,1.2L473,58c2,.52,3.17,1.71,3.17,3.61,0,2.6-2.15,4.14-5.48,4.14C467.16,65.7,464.79,64,464.79,61.59Z" fill="#fff"/><path d="M478.08,63.07a2.57,2.57,0,1,1,2.57,2.55A2.54,2.54,0,0,1,478.08,63.07Z" fill="#fff"/><rect width="728" height="90" fill="none"/></g></g></svg>