<svg xmlns="http://www.w3.org/2000/svg" viewBox="0 0 728 90"><title>txt2a</title><g id="Layer_2" data-name="Layer 2"><g id="Layer_7_copy" data-name="Layer 7 copy"><path d="M386.53,36.15h-6.45l-.62,2.21H375l6.16-18.2h4.24l6.19,18.2h-4.45Zm-.94-3.3-2.28-8.09L381,32.85Z" fill="#fff"/><path d="M393.5,25.83h4v1.81a4.24,4.24,0,0,1,4-2.15c3,0,4.58,1.71,4.58,5.12v7.75h-4V31.91c0-2.11-.59-3.07-2.21-3.07s-2.41,1-2.41,3v6.56h-4Z" fill="#fff"/><path d="M422.2,20.16v18.2h-3.95V36.59a4.51,4.51,0,0,1-4,2.11c-3.74,0-5.9-2.84-5.9-6.61s2.31-6.6,5.95-6.6a4.29,4.29,0,0,1,3.93,2.13V20.16Zm-3.79,11.93a3,3,0,1,0-6,0,3,3,0,0,0,3,3.3C417.39,35.39,418.41,33.91,418.41,32.09Z" fill="#fff"/><path d="M430.83,32.09c0-4,2.58-6.6,6.71-6.6,3.75,0,6.19,2,6.5,5.09h-4c-.28-1.17-1-1.71-2.49-1.71-1.72,0-2.76,1.14-2.76,3.22s1,3.23,2.76,3.23c1.45,0,2.21-.53,2.49-1.62h4c-.31,3-2.75,5-6.5,5C433.41,38.7,430.83,36,430.83,32.09Z" fill="#fff"/><path d="M445.78,32.09c0-3.82,2.66-6.6,7-6.6s6.94,2.78,6.94,6.6S457,38.7,452.75,38.7,445.78,35.91,445.78,32.09Zm10,0a3,3,0,1,0-6,0,3,3,0,1,0,6,0Z" fill="#fff"/><path d="M462,25.83h4v1.81A4.26,4.26,0,0,1,470,25.49c3,0,4.57,1.71,4.57,5.12v7.75h-4V31.91c0-2.11-.6-3.07-2.21-3.07s-2.42,1-2.42,3v6.56h-4Z" fill="#fff"/><path d="M476.85,34.59h4c0,.86.83,1.45,2.05,1.45.86,0,1.46-.41,1.46-1.14,0-.57-.29-.91-1.36-1.17l-2.62-.65a3.66,3.66,0,0,1-3.15-3.67c0-2.36,2.13-3.92,5.36-3.92,3.53,0,5.59,1.38,5.59,3.87h-3.93c0-.88-.65-1.35-1.71-1.35-.86,0-1.43.41-1.43,1s.36.94,1.37,1.2l2.66.73c2,.52,3.17,1.71,3.17,3.61,0,2.6-2.16,4.14-5.49,4.14C479.22,38.7,476.85,37,476.85,34.59Z" fill="#fff"/><path d="M498.51,35.19v3.17a15.9,15.9,0,0,1-2.65.21c-1.87,0-4.45-.42-4.45-4.61V29h-2V25.83h2V22.11h4v3.72h2.84V29h-2.84v4.16c0,1.85.76,2.13,1.74,2.13A11.66,11.66,0,0,0,498.51,35.19Z" fill="#fff"/><path d="M499.81,32.09c0-3.74,2.32-6.6,6-6.6a4.26,4.26,0,0,1,3.92,2.13V25.83h3.95V38.36h-3.95V36.59a4.49,4.49,0,0,1-4,2.11C502,38.7,499.81,35.86,499.81,32.09Zm10,0a3,3,0,1,0-6,0,3,3,0,0,0,3,3.3C508.83,35.39,509.85,33.91,509.85,32.09Z" fill="#fff"/><path d="M517,25.83h4v1.81A4.26,4.26,0,0,1,525,25.49c3,0,4.58,1.71,4.58,5.12v7.75h-4V31.91c0-2.11-.6-3.07-2.21-3.07s-2.42,1-2.42,3v6.56h-4Z" fill="#fff"/><path d="M540.45,35.19v3.17a15.9,15.9,0,0,1-2.65.21c-1.87,0-4.45-.42-4.45-4.61V29h-2V25.83h2V22.11h4v3.72h2.83V29h-2.83v4.16c0,1.85.75,2.13,1.74,2.13A11.78,11.78,0,0,0,540.45,35.19Z" fill="#fff"/><rect width="728" height="90" fill="none"/></g></g></svg>