<svg xmlns="http://www.w3.org/2000/svg" viewBox="0 0 728 90"><title>txt3b</title><g id="Layer_2" data-name="Layer 2"><g id="Layer_9" data-name="Layer 9"><path d="M389,57.37v7.75h-4V58.67c0-2.1-.6-3.07-2.21-3.07s-2.42,1-2.42,3v6.55h-4V46.92h4v7.49a4.25,4.25,0,0,1,4.05-2.16C387.47,52.25,389,54,389,57.37Z" fill="#fff"/><path d="M391.18,58.85c0-3.82,2.66-6.6,7-6.6s6.94,2.78,6.94,6.6-2.65,6.61-6.94,6.61S391.18,62.68,391.18,58.85Zm10,0a3,3,0,1,0-6,0,3,3,0,1,0,6,0Z" fill="#fff"/><path d="M407.38,52.59h4v1.82A3.78,3.78,0,0,1,415,52.25c2.23,0,3.38,1,3.92,2.31a4.39,4.39,0,0,1,4-2.31c3.59,0,4.45,2.47,4.45,5.1v7.77h-4V58.07c0-1.74-.65-2.47-1.87-2.47s-2.11.71-2.11,3.07v6.45h-4V58.05c0-1.74-.63-2.45-1.85-2.45s-2.13.71-2.13,3.07v6.45h-4Z" fill="#fff"/><path d="M442.69,60h-9.26c.08,1.63,1.17,2.52,2.94,2.52,1.22,0,2-.34,2.34-1.12h3.9c-.39,2.47-2.91,4.11-6.24,4.11-4.26,0-6.89-2.42-6.89-6.61s2.68-6.6,6.76-6.6c3.9,0,6.55,2.42,6.55,6A13.35,13.35,0,0,1,442.69,60Zm-3.82-2.47a2.36,2.36,0,0,0-2.65-2.55,2.52,2.52,0,0,0-2.79,2.55Z" fill="#fff"/><path d="M464,57.37v7.75h-4V58.67c0-2.1-.6-3.07-2.21-3.07s-2.42,1-2.42,3v6.55h-4V46.92h4v7.49a4.25,4.25,0,0,1,4.05-2.16C462.48,52.25,464,54,464,57.37Z" fill="#fff"/><path d="M479.4,60h-9.25c.07,1.63,1.17,2.52,2.93,2.52,1.23,0,2-.34,2.34-1.12h3.9c-.39,2.47-2.91,4.11-6.24,4.11-4.26,0-6.89-2.42-6.89-6.61s2.68-6.6,6.76-6.6c3.9,0,6.56,2.42,6.56,6A13.43,13.43,0,0,1,479.4,60Zm-3.82-2.47a2.36,2.36,0,0,0-2.65-2.55,2.5,2.5,0,0,0-2.78,2.55Z" fill="#fff"/><path d="M481.79,52.59h4v2.62a3.51,3.51,0,0,1,3.46-2.83,4.25,4.25,0,0,1,1,.1v3.7a9.3,9.3,0,0,0-1.2-.08c-2.15,0-3.3,1.4-3.3,4.19v4.83h-4Z" fill="#fff"/><path d="M504.54,60h-9.25c.08,1.63,1.17,2.52,2.94,2.52,1.22,0,2-.34,2.34-1.12h3.9c-.39,2.47-2.92,4.11-6.24,4.11-4.27,0-6.9-2.42-6.9-6.61s2.68-6.6,6.77-6.6c3.9,0,6.55,2.42,6.55,6A13.43,13.43,0,0,1,504.54,60Zm-3.82-2.47a2.35,2.35,0,0,0-2.65-2.55,2.5,2.5,0,0,0-2.78,2.55Z" fill="#fff"/><path d="M506.44,62.83A2.58,2.58,0,1,1,509,65.38,2.54,2.54,0,0,1,506.44,62.83Z" fill="#fff"/><rect width="728" height="90" fill="none"/></g></g></svg>