<svg xmlns="http://www.w3.org/2000/svg" viewBox="0 0 728 90"><title>txt3a</title><g id="Layer_2" data-name="Layer 2"><g id="Layer_9_copy" data-name="Layer 9 copy"><path d="M376.52,19.92h11.13v3.54h-6.92v4.91h6.92v3.46h-6.92v6.29h-4.21Z" fill="#fff"/><path d="M390,22.08a2.4,2.4,0,0,1,2.44-2.45,2.44,2.44,0,1,1,0,4.87A2.39,2.39,0,0,1,390,22.08Zm.47,3.51h4V38.12h-4Z" fill="#fff"/><path d="M397.71,25.59h4v1.82a4.25,4.25,0,0,1,4.05-2.16c3.05,0,4.58,1.72,4.58,5.12v7.75h-4V31.67c0-2.1-.6-3.07-2.21-3.07s-2.42,1-2.42,3v6.55h-4Z" fill="#fff"/><path d="M426.41,19.92v18.2h-4V36.35a4.49,4.49,0,0,1-4,2.11c-3.74,0-5.9-2.83-5.9-6.61s2.32-6.6,6-6.6a4.28,4.28,0,0,1,3.92,2.13V19.92Zm-3.79,11.93a3,3,0,1,0-6,0,3,3,0,0,0,3,3.31C421.6,35.16,422.62,33.67,422.62,31.85Z" fill="#fff"/><path d="M448.49,25.59V37.73a5.89,5.89,0,0,1-1.8,4.52,6.5,6.5,0,0,1-4.6,1.46,7,7,0,0,1-4.63-1.3,4.47,4.47,0,0,1-1.56-3.3h4c.08,1.06.67,1.69,2.18,1.69s2.42-.86,2.42-2.81V36a4.18,4.18,0,0,1-4,2.08c-3.2,0-4.63-2.13-4.63-5.25V25.59h4v6.68c0,1.61.55,2.7,2.21,2.7s2.42-1.24,2.42-3.17V25.59Z" fill="#fff"/><path d="M450.78,31.85c0-3.82,2.65-6.6,7-6.6s6.95,2.78,6.95,6.6-2.66,6.61-6.95,6.61S450.78,35.68,450.78,31.85Zm10,0a3,3,0,1,0-6,0,3,3,0,1,0,6,0Z" fill="#fff"/><path d="M466.84,33.34V25.59h4v6.86c0,1.72.58,2.65,2.08,2.65,1.69,0,2.42-1.09,2.42-2.78V25.59h3.95V38.12h-3.95V36.33a4.11,4.11,0,0,1-3.9,2.13C468.46,38.46,466.84,36.59,466.84,33.34Z" fill="#fff"/><path d="M482.63,25.59h4v2.62a3.51,3.51,0,0,1,3.46-2.83,4.25,4.25,0,0,1,1,.1v3.7a9.26,9.26,0,0,0-1.19-.08c-2.16,0-3.31,1.4-3.31,4.19v4.83h-4Z" fill="#fff"/><rect width="728" height="90" fill="none"/></g></g></svg>