<svg xmlns="http://www.w3.org/2000/svg" viewBox="0 0 728 90"><title>txt4</title><g id="Layer_2" data-name="Layer 2"><g id="Layer_11" data-name="Layer 11"><path d="M265.77,51.1l3.41,5.52h-2.49l-3.24-5.2h-3.51v5.2h-2.18V39.82h6a5.52,5.52,0,0,1,5.64,5.81A5.54,5.54,0,0,1,265.77,51.1Zm-5.83-1.65h3.72a3.59,3.59,0,0,0,3.58-3.82,3.59,3.59,0,0,0-3.58-3.84h-3.72Z" fill="#fff"/><path d="M282.07,51.71H273.5A3.2,3.2,0,0,0,277,55.09a2.9,2.9,0,0,0,2.93-1.63H282c-.38,2-2.42,3.45-5,3.45-3.41,0-5.54-2.25-5.54-5.83s2.16-5.81,5.45-5.81a5,5,0,0,1,5.23,5.21A11,11,0,0,1,282.07,51.71Zm-2-1.61A2.94,2.94,0,0,0,276.86,47a3.14,3.14,0,0,0-3.36,3.15Z" fill="#fff"/><path d="M284.57,42A1.69,1.69,0,1,1,288,42a1.69,1.69,0,0,1-3.38,0Zm.67,3.58h2.06V56.62h-2.06Z" fill="#fff"/><path d="M291.31,45.56h2.09v2a3.4,3.4,0,0,1,3.31-2.31,3.29,3.29,0,0,1,3.53,2.38,3.77,3.77,0,0,1,3.58-2.38c3,0,4,1.92,4,4.35v7h-2.09V50c0-2.08-.91-3-2.4-3s-2.71,1.11-2.71,3.8v5.75h-2.09V50.19c0-2.4-1-3.12-2.37-3.12-1.71,0-2.74,1.2-2.74,3.8v5.75h-2.09Z" fill="#fff"/><path d="M310.8,51.1c0-3.26,2.09-5.83,5.52-5.83a4.26,4.26,0,0,1,3.89,2.26v-2h2.06V56.62h-2.06V54.68a4.41,4.41,0,0,1-3.94,2.23C312.74,56.91,310.8,54.37,310.8,51.1Zm9.5,0a3.73,3.73,0,1,0-7.44,0,3.73,3.73,0,1,0,7.44,0Z" fill="#fff"/><path d="M336.86,45.56V56.34A5.55,5.55,0,0,1,334.94,61a6.26,6.26,0,0,1-3.81,1A6.85,6.85,0,0,1,327.19,61,3.72,3.72,0,0,1,325.56,58h2.18c.15,1.29,1.25,2.25,3.36,2.25,2.4,0,3.7-1.15,3.7-3.79v-1.8a4.43,4.43,0,0,1-3.94,2.23c-3.38,0-5.47-2.54-5.47-5.81a5.5,5.5,0,0,1,5.52-5.83,4.22,4.22,0,0,1,3.89,2.26v-2Zm-2,5.54A3.73,3.73,0,1,0,331.15,55,3.69,3.69,0,0,0,334.89,51.1Z" fill="#fff"/><path d="M340.2,42a1.69,1.69,0,1,1,3.38,0,1.69,1.69,0,0,1-3.38,0Zm.67,3.58h2.06V56.62h-2.06Z" fill="#fff"/><path d="M346.94,45.56H349v2a3.91,3.91,0,0,1,3.86-2.33c2.72,0,4.11,1.59,4.11,4.54v6.81h-2.07v-5.9c0-2.47-.81-3.65-2.78-3.65S349,48.54,349,50.77v5.85h-2.09Z" fill="#fff"/><path d="M370.63,51.71h-8.57a3.2,3.2,0,0,0,3.48,3.38,2.91,2.91,0,0,0,2.93-1.63h2.09c-.39,2-2.43,3.45-5,3.45-3.41,0-5.54-2.25-5.54-5.83s2.16-5.81,5.44-5.81a5,5,0,0,1,5.24,5.21A11,11,0,0,1,370.63,51.71Zm-2-1.61A2.94,2.94,0,0,0,365.42,47a3.14,3.14,0,0,0-3.36,3.15Z" fill="#fff"/><path d="M386.3,54.75V56.6a9.1,9.1,0,0,1-1.87.17c-1.3,0-3.38-.24-3.38-3.82V47.31h-2V45.56h2v-3.5h2.08v3.5h2.79v1.75h-2.79V52.5c0,2.11.72,2.4,1.78,2.4A8.11,8.11,0,0,0,386.3,54.75Z" fill="#fff"/><path d="M399.33,49.81v6.81h-2.09v-5.9c0-2.47-.79-3.65-2.78-3.65s-3.12,1.47-3.12,3.7v5.85h-2.09V39.82h2.09V47.6a3.91,3.91,0,0,1,3.86-2.33C397.94,45.27,399.33,46.86,399.33,49.81Z" fill="#fff"/><path d="M413,51.71H404.4a3.2,3.2,0,0,0,3.48,3.38,2.92,2.92,0,0,0,2.93-1.63h2.08c-.38,2-2.42,3.45-5,3.45-3.41,0-5.55-2.25-5.55-5.83s2.16-5.81,5.45-5.81A5,5,0,0,1,413,50.48C413,50.89,413,51.2,413,51.71Zm-2-1.61A2.93,2.93,0,0,0,407.76,47a3.13,3.13,0,0,0-3.36,3.15Z" fill="#fff"/><path d="M421,45.56h2.28l2.64,8.09,2.72-8.09h2.23l2.69,8.09,2.66-8.09h2.28l-4.08,11.06h-1.77l-2.91-8.49-2.9,8.49h-1.76Z" fill="#fff"/><path d="M439.51,51.1c0-3.26,2.09-5.83,5.52-5.83a4.26,4.26,0,0,1,3.89,2.26v-2H451V56.62h-2.06V54.68A4.41,4.41,0,0,1,445,56.91C441.45,56.91,439.51,54.37,439.51,51.1Zm9.5,0a3.73,3.73,0,1,0-7.44,0,3.73,3.73,0,1,0,7.44,0Z" fill="#fff"/><path d="M465,45.56V56.84a5.23,5.23,0,0,1-1.49,4,5.42,5.42,0,0,1-3.62,1.2,5.63,5.63,0,0,1-3.74-1.16A3.62,3.62,0,0,1,454.87,58H457c.09,1.34.81,2.25,2.88,2.25,1.87,0,3.07-1.05,3.07-3.57V54.63a4,4,0,0,1-3.84,2.26c-2.88,0-4.2-1.92-4.2-4.73v-6.6h2.06v6.17c0,2,.65,3.31,2.83,3.31s3.15-1.8,3.15-3.79V45.56Z" fill="#fff"/><path d="M485.59,49.81v6.81H483.5v-5.9c0-2.47-.79-3.65-2.78-3.65s-3.12,1.47-3.12,3.7v5.85h-2.09V39.82h2.09V47.6a3.91,3.91,0,0,1,3.86-2.33C484.2,45.27,485.59,46.86,485.59,49.81Z" fill="#fff"/><path d="M488.59,51.1a5.76,5.76,0,1,1,11.52,0,5.76,5.76,0,1,1-11.52,0Zm9.43,0c0-2.23-1.34-4-3.67-4a3.64,3.64,0,0,0-3.7,4,3.69,3.69,0,1,0,7.37,0Z" fill="#fff"/><path d="M503.2,45.56h2.09v2a3.4,3.4,0,0,1,3.31-2.31,3.28,3.28,0,0,1,3.53,2.38,3.77,3.77,0,0,1,3.58-2.38c3,0,4,1.92,4,4.35v7H517.6V50c0-2.08-.91-3-2.4-3s-2.71,1.11-2.71,3.8v5.75H510.4V50.19c0-2.4-1-3.12-2.37-3.12-1.71,0-2.74,1.2-2.74,3.8v5.75H503.2Z" fill="#fff"/><path d="M533.32,51.71h-8.57a3.2,3.2,0,0,0,3.48,3.38,2.9,2.9,0,0,0,2.93-1.63h2.09c-.38,2-2.42,3.45-5,3.45-3.4,0-5.54-2.25-5.54-5.83s2.16-5.81,5.45-5.81a5,5,0,0,1,5.23,5.21A11,11,0,0,1,533.32,51.71Zm-2-1.61A2.94,2.94,0,0,0,528.11,47a3.14,3.14,0,0,0-3.36,3.15Z" fill="#fff"/><path d="M535.89,55a1.74,1.74,0,0,1,1.73-1.75,1.75,1.75,0,1,1,0,3.5A1.74,1.74,0,0,1,535.89,55Z" fill="#fff"/><rect width="728" height="90" fill="none"/></g></g></svg>