<svg xmlns="http://www.w3.org/2000/svg" viewBox="0 0 728 90"><title>w</title><g id="Layer_2" data-name="Layer 2"><g id="Layer_13" data-name="Layer 13"><g id="_" data-name="®"><path d="M200.93,36.39a1,1,0,0,0-1-1h-1.1v3h.49v-.9h.49l.54.9h.56l-.59-1A1,1,0,0,0,200.93,36.39Zm-1.06.6h-.58V35.78h.58a.61.61,0,0,1,0,1.21Z" fill="#fff"/><path d="M199.75,34.3a2.59,2.59,0,1,0,2.59,2.59A2.6,2.6,0,0,0,199.75,34.3Zm0,4.68a2.1,2.1,0,1,1,2.1-2.09A2.1,2.1,0,0,1,199.75,39Z" fill="#fff"/></g><g id="w"><path d="M162.6,39.45h6.85l2,6.49c.66,2.15,1.77,6.19,1.77,6.19a.05.05,0,0,0,.1,0s1.15-4.11,1.8-6.19l2.09-6.49h5.06l2.05,6.49c.69,2.23,1.76,6.19,1.76,6.19a.05.05,0,0,0,.1,0s1.12-4,1.77-6.19l2-6.49h6.37l-6.89,21.47h-6.27l-1.71-5.39c-.65-2.12-1.81-6.23-1.81-6.23a.05.05,0,0,0-.1,0s-1.16,4-1.85,6.19l-1.74,5.43h-6.39Z" fill="#fff"/></g><rect width="728" height="90" fill="none"/></g></g></svg>